<svg xmlns="http://www.w3.org/2000/svg" xmlns:xlink="http://www.w3.org/1999/xlink" viewBox="0,0,256,256" width="48px" height="48px"><g fill="none" fill-rule="nonzero" stroke="none" stroke-width="1" stroke-linecap="butt" stroke-linejoin="none" stroke-miterlimit="10" stroke-dasharray="" stroke-dashoffset="0" font-family="none" font-weight="none" font-size="none" text-anchor="none" style="mix-blend-mode: normal"><path transform="scale(5.33333,5.33333)" d="M24,44c-11.045,0 -20,-8.955 -20,-20c0,-11.045 8.955,-20 20,-20c5.268,0 10.046,2.053 13.618,5.382l-5.657,5.657c-2.119,-1.885 -4.902,-3.039 -7.961,-3.039c-5.039,0 -9.345,3.108 -11.123,7.51l-0.00667,-0.00489c-0.56128,1.38829 -0.87033,2.90552 -0.87033,4.49489c0,1.42607 0.24881,2.79407 0.70538,4.06295l0.01162,-0.00895c1.664,4.629 6.081,7.946 11.283,7.946c2.715,0 5.211,-0.909 7.219,-2.43l0.00527,0.00446c0.00021,-0.00016 0.00042,-0.00032 0.00062,-0.00047l-0.00589,-0.00499c-0.0007,0.0007 -0.00139,0.00091 -0.00209,0.00131c1.82797,-1.38405 3.25134,-3.27644 4.05034,-5.47075c0.01206,-0.03312 0.02397,-0.0663 0.03575,-0.09956h-11.303v-8h18v0.083h1.611c0.251,1.267 0.389,2.576 0.389,3.917c0,8.75744 -5.39073,13.83746 -6.43622,14.69739c-3.56483,3.29154 -8.32962,5.30261 -13.56378,5.30261zM31.216,33.571c0.0003,-0.0003 0.00061,-0.00052 0.00091,-0.00069c-0.0003,0.00023 -0.00061,0.00046 -0.00091,0.00069z" id="strokeMainSVG" fill="#dddddd" stroke="#dddddd" stroke-linejoin="round"></path><g transform="scale(5.33333,5.33333)" stroke="none" stroke-linejoin="miter"><path d="M43.611,20.083h-1.611v-0.083h-18v8h11.303c-1.649,4.657 -6.08,8 -11.303,8c-6.627,0 -12,-5.373 -12,-12c0,-6.627 5.373,-12 12,-12c3.059,0 5.842,1.154 7.961,3.039l5.657,-5.657c-3.572,-3.329 -8.35,-5.382 -13.618,-5.382c-11.045,0 -20,8.955 -20,20c0,11.045 8.955,20 20,20c11.045,0 20,-8.955 20,-20c0,-1.341 -0.138,-2.65 -0.389,-3.917z" fill="#ffc107"></path><path d="M6.306,14.691l6.571,4.819c1.778,-4.402 6.084,-7.51 11.123,-7.51c3.059,0 5.842,1.154 7.961,3.039l5.657,-5.657c-3.572,-3.329 -8.35,-5.382 -13.618,-5.382c-7.682,0 -14.344,4.337 -17.694,10.691z" fill="#ff3d00"></path><path d="M24,44c5.166,0 9.86,-1.977 13.409,-5.192l-6.19,-5.238c-2.008,1.521 -4.504,2.43 -7.219,2.43c-5.202,0 -9.619,-3.317 -11.283,-7.946l-6.522,5.025c3.31,6.477 10.032,10.921 17.805,10.921z" fill="#4caf50"></path><path d="M43.611,20.083h-1.611v-0.083h-18v8h11.303c-0.792,2.237 -2.231,4.166 -4.087,5.571c0.001,-0.001 0.002,-0.001 0.003,-0.002l6.19,5.238c-0.438,0.398 6.591,-4.807 6.591,-14.807c0,-1.341 -0.138,-2.65 -0.389,-3.917z" fill="#1976d2"></path></g></g></svg>