<svg id="svg" version="1.1" xmlns="http://www.w3.org/2000/svg" xmlns:xlink="http://www.w3.org/1999/xlink" width="400" height="400" viewBox="0, 0, 400,400"><g id="svgg"><path id="path0" d="M307.907 43.090 C 308.626 43.179,309.706 43.177,310.307 43.086 C 310.908 42.995,310.320 42.922,309.000 42.924 C 307.680 42.926,307.188 43.001,307.907 43.090 M391.389 83.618 C 391.247 83.847,391.335 84.281,391.585 84.582 C 391.912 84.976,391.917 85.204,391.600 85.400 C 391.290 85.592,391.314 85.860,391.681 86.312 C 391.966 86.665,392.007 86.838,391.771 86.697 C 390.872 86.160,384.873 92.837,384.422 94.877 C 383.980 96.876,384.236 98.512,384.839 97.538 C 385.041 97.210,385.116 97.464,385.035 98.204 C 384.962 98.862,385.052 99.495,385.233 99.612 C 385.415 99.729,385.608 100.494,385.663 101.312 C 385.718 102.130,385.907 102.800,386.082 102.800 C 386.257 102.800,386.400 103.520,386.400 104.400 C 386.400 105.410,386.584 106.002,386.900 106.006 C 387.266 106.011,387.254 106.105,386.855 106.358 C 386.462 106.607,386.442 106.747,386.784 106.861 C 387.045 106.948,387.290 107.825,387.330 108.810 C 387.370 109.794,387.533 110.802,387.693 111.048 C 387.853 111.295,388.027 113.365,388.080 115.648 C 388.132 117.932,388.361 119.932,388.588 120.094 C 388.844 120.277,388.793 120.390,388.451 120.394 C 387.986 120.399,387.986 120.503,388.451 121.077 C 388.867 121.590,388.874 121.678,388.478 121.440 C 388.084 121.203,387.979 121.454,388.050 122.463 C 388.292 125.906,387.974 133.631,387.600 133.400 C 387.352 133.247,387.200 133.988,387.200 135.353 C 387.200 136.563,387.020 137.664,386.800 137.800 C 386.580 137.936,386.400 138.746,386.400 139.600 C 386.400 140.454,386.259 141.240,386.087 141.346 C 385.915 141.452,385.730 142.138,385.675 142.870 C 385.620 143.601,385.400 144.260,385.187 144.333 C 384.974 144.407,384.800 144.754,384.800 145.105 C 384.800 146.164,383.601 149.545,382.156 152.561 C 381.850 153.200,381.600 154.055,381.600 154.461 C 381.600 154.868,381.420 155.200,381.200 155.200 C 380.980 155.200,380.800 155.425,380.801 155.700 C 380.802 156.324,379.174 159.592,378.500 160.318 C 378.225 160.615,378.000 161.015,378.000 161.209 C 378.000 161.402,377.460 162.360,376.800 163.338 C 376.140 164.316,375.600 165.315,375.600 165.558 C 375.600 165.801,375.450 166.000,375.268 166.000 C 375.085 166.000,374.680 166.495,374.368 167.100 C 374.055 167.705,373.485 168.549,373.100 168.975 C 372.715 169.402,372.400 169.903,372.400 170.089 C 372.400 170.275,371.815 171.015,371.100 171.734 C 370.385 172.454,369.350 173.629,368.800 174.347 C 367.505 176.036,364.991 178.585,362.630 180.600 C 361.600 181.480,359.961 182.965,358.989 183.900 C 358.016 184.835,356.986 185.600,356.699 185.600 C 356.412 185.600,355.917 185.960,355.600 186.400 C 355.283 186.840,354.827 187.200,354.587 187.200 C 354.347 187.200,353.802 187.515,353.375 187.900 C 352.949 188.285,352.105 188.855,351.500 189.168 C 350.895 189.480,350.400 189.885,350.400 190.068 C 350.400 190.250,350.040 190.400,349.600 190.400 C 349.160 190.400,348.800 190.580,348.800 190.800 C 348.800 191.020,348.616 191.200,348.392 191.200 C 348.168 191.200,347.313 191.624,346.492 192.142 C 345.671 192.660,344.902 193.065,344.782 193.042 C 344.663 193.019,344.078 193.319,343.482 193.709 C 342.887 194.099,342.400 194.333,342.400 194.230 C 342.400 194.126,341.330 194.572,340.022 195.220 C 338.715 195.869,337.275 196.400,336.822 196.400 C 336.370 196.400,336.000 196.580,336.000 196.800 C 336.000 197.020,335.475 197.200,334.833 197.200 C 334.192 197.200,333.607 197.375,333.533 197.588 C 333.460 197.802,333.000 198.037,332.510 198.111 C 332.021 198.185,331.496 198.371,331.344 198.523 C 331.191 198.675,330.477 198.800,329.757 198.800 C 329.037 198.800,328.336 198.980,328.200 199.200 C 328.064 199.420,327.536 199.600,327.027 199.600 C 325.926 199.600,323.200 201.971,323.200 202.928 C 323.200 203.298,323.020 203.600,322.800 203.600 C 322.578 203.600,322.400 204.667,322.400 206.000 C 322.400 207.333,322.222 208.400,322.000 208.400 C 321.771 208.400,321.600 209.600,321.600 211.200 C 321.600 212.800,321.429 214.000,321.200 214.000 C 320.974 214.000,320.800 215.133,320.800 216.600 C 320.800 218.067,320.626 219.200,320.400 219.200 C 320.171 219.200,320.000 220.400,320.000 222.000 C 320.000 223.600,319.829 224.800,319.600 224.800 C 319.369 224.800,319.200 226.067,319.200 227.800 C 319.200 229.533,319.369 230.800,319.600 230.800 C 319.820 230.800,320.000 231.078,320.000 231.418 C 320.000 232.115,321.434 233.669,322.704 234.349 C 323.747 234.907,327.600 234.947,327.600 234.400 C 327.600 234.180,327.825 233.994,328.100 233.987 C 328.948 233.966,330.800 232.083,330.800 231.243 C 330.800 230.805,330.980 230.336,331.200 230.200 C 331.420 230.064,331.600 228.883,331.600 227.576 C 331.600 226.259,331.778 225.200,332.000 225.200 C 332.225 225.200,332.400 224.075,332.400 222.624 C 332.400 221.207,332.580 219.936,332.800 219.800 C 333.020 219.664,333.200 218.303,333.200 216.776 C 333.200 215.192,333.372 214.000,333.600 214.000 C 333.820 214.000,333.979 213.865,333.953 213.700 C 333.675 211.939,334.070 210.400,334.800 210.400 C 335.240 210.400,335.600 210.220,335.600 210.000 C 335.600 209.780,336.039 209.600,336.576 209.600 C 337.113 209.600,337.664 209.420,337.800 209.200 C 337.936 208.980,338.566 208.800,339.200 208.800 C 339.834 208.800,340.464 208.620,340.600 208.400 C 340.736 208.180,341.197 208.000,341.624 208.000 C 342.051 208.000,342.400 207.840,342.400 207.645 C 342.400 207.450,342.895 207.194,343.500 207.075 C 345.255 206.731,347.600 205.831,347.600 205.502 C 347.600 205.336,347.782 205.200,348.004 205.200 C 348.488 205.200,352.114 203.550,352.400 203.200 C 352.510 203.065,353.179 202.720,353.887 202.434 C 354.594 202.148,355.389 201.654,355.652 201.337 C 355.915 201.020,356.882 200.418,357.800 200.000 C 358.718 199.582,359.701 198.961,359.984 198.620 C 360.266 198.279,360.757 198.000,361.073 198.000 C 361.389 198.000,361.536 197.820,361.400 197.600 C 361.264 197.380,361.484 197.200,361.888 197.200 C 362.293 197.200,362.883 196.840,363.200 196.400 C 363.517 195.960,363.985 195.600,364.240 195.600 C 364.495 195.600,365.445 194.880,366.352 194.000 C 367.259 193.120,368.088 192.400,368.194 192.400 C 368.753 192.400,376.800 184.480,376.800 183.929 C 376.800 183.722,376.953 183.647,377.140 183.763 C 377.327 183.878,377.717 183.529,378.007 182.986 C 378.298 182.444,378.685 182.000,378.868 182.000 C 379.050 182.000,379.200 181.820,379.200 181.600 C 379.200 181.381,379.920 180.459,380.800 179.552 C 381.680 178.645,382.400 177.695,382.400 177.440 C 382.400 177.185,382.750 176.724,383.179 176.415 C 383.607 176.107,383.878 175.726,383.781 175.569 C 383.684 175.412,383.874 175.181,384.202 175.054 C 384.531 174.928,384.800 174.627,384.800 174.386 C 384.800 174.144,385.250 173.357,385.800 172.636 C 386.350 171.914,386.800 171.176,386.800 170.994 C 386.800 170.812,387.066 170.370,387.390 170.011 C 388.201 169.115,391.600 162.455,391.600 161.762 C 391.600 161.453,391.780 161.200,392.000 161.200 C 392.220 161.200,392.400 160.840,392.400 160.400 C 392.400 159.960,392.580 159.600,392.800 159.600 C 393.020 159.600,393.200 159.328,393.200 158.995 C 393.200 158.662,393.380 158.032,393.600 157.595 C 393.820 157.158,394.180 156.442,394.400 156.005 C 394.620 155.568,394.800 154.848,394.800 154.405 C 394.800 153.962,394.980 153.600,395.200 153.600 C 395.420 153.600,395.600 153.161,395.600 152.624 C 395.600 152.087,395.780 151.536,396.000 151.400 C 396.220 151.264,396.400 150.623,396.400 149.976 C 396.400 149.329,396.580 148.800,396.800 148.800 C 397.020 148.800,397.200 148.271,397.200 147.624 C 397.200 146.977,397.361 146.348,397.558 146.226 C 397.755 146.105,398.029 145.239,398.167 144.303 C 398.306 143.366,398.525 141.880,398.655 141.000 C 398.784 140.120,399.087 139.157,399.327 138.861 C 399.949 138.092,400.203 113.129,399.629 109.200 C 399.387 107.550,399.082 105.390,398.951 104.400 C 398.820 103.410,398.560 102.411,398.374 102.181 C 398.188 101.950,397.992 101.107,397.938 100.307 C 397.884 99.506,397.696 98.941,397.520 99.049 C 397.206 99.243,397.016 98.088,397.132 96.700 C 397.164 96.315,397.013 96.000,396.795 96.000 C 396.578 96.000,396.400 95.449,396.400 94.776 C 396.400 94.063,396.233 93.656,396.000 93.800 C 395.780 93.936,395.573 93.722,395.539 93.324 C 395.385 91.491,394.869 90.400,394.157 90.400 C 393.851 90.400,393.600 90.209,393.600 89.976 C 393.600 89.743,393.768 89.656,393.972 89.783 C 394.177 89.909,394.448 89.846,394.574 89.642 C 394.838 89.215,394.039 89.273,393.300 89.735 C 393.025 89.907,392.800 89.876,392.800 89.666 C 392.800 89.457,393.078 89.179,393.419 89.048 C 394.025 88.816,394.084 87.613,393.510 87.183 C 393.351 87.063,393.162 86.586,393.091 86.122 C 393.021 85.658,392.731 84.998,392.447 84.657 C 392.163 84.315,392.047 83.847,392.189 83.618 C 392.331 83.388,392.267 83.200,392.047 83.200 C 391.827 83.200,391.531 83.388,391.389 83.618 M382.990 93.589 C 383.369 94.008,383.568 94.528,383.433 94.747 C 383.298 94.966,383.349 95.245,383.548 95.368 C 383.746 95.490,383.988 95.177,384.084 94.672 C 384.214 93.992,384.005 93.633,383.281 93.291 C 382.337 92.845,382.327 92.856,382.990 93.589 M269.400 207.600 C 269.264 207.820,269.295 208.000,269.470 208.000 C 269.644 208.000,267.730 210.063,265.216 212.584 C 261.718 216.092,260.523 217.068,260.127 216.739 C 259.842 216.503,259.723 216.105,259.863 215.855 C 260.003 215.605,259.866 215.636,259.559 215.925 C 259.083 216.372,259.103 216.508,259.700 216.845 C 260.085 217.062,260.400 217.411,260.400 217.620 C 260.400 217.829,260.085 218.013,259.700 218.028 C 259.127 218.051,259.109 218.106,259.600 218.328 C 259.930 218.478,260.255 218.855,260.323 219.168 C 260.424 219.637,260.337 219.646,259.823 219.219 C 259.283 218.771,259.200 218.858,259.200 219.871 C 259.200 220.514,258.985 221.255,258.721 221.519 C 258.350 221.890,258.417 222.138,259.021 222.628 C 259.450 222.975,259.597 223.159,259.349 223.036 C 258.849 222.789,258.400 224.501,258.400 226.650 C 258.400 227.460,258.200 228.002,257.900 228.006 C 257.566 228.010,257.598 228.138,257.997 228.389 C 258.472 228.690,258.492 228.868,258.097 229.263 C 257.815 229.545,257.600 230.766,257.600 232.080 C 257.600 233.356,257.447 234.400,257.260 234.400 C 257.072 234.400,256.901 235.767,256.878 237.437 C 256.855 239.107,256.626 240.727,256.369 241.037 C 256.006 241.474,256.024 241.601,256.451 241.606 C 256.820 241.610,256.855 241.708,256.558 241.906 C 256.314 242.068,256.082 243.368,256.043 244.795 C 256.003 246.222,255.797 247.563,255.585 247.775 C 255.373 247.987,255.200 249.463,255.200 251.056 C 255.200 252.649,255.059 254.040,254.886 254.147 C 254.713 254.254,254.521 255.749,254.459 257.471 C 254.396 259.192,254.178 260.771,253.973 260.980 C 253.768 261.189,253.600 262.638,253.600 264.200 C 253.600 265.762,253.434 267.211,253.230 267.420 C 253.027 267.629,252.754 269.240,252.625 271.000 C 252.496 272.760,252.289 275.595,252.165 277.300 C 252.041 279.005,251.799 280.400,251.628 280.400 C 251.457 280.400,251.281 281.764,251.237 283.431 C 251.192 285.099,250.986 286.910,250.778 287.457 C 250.570 288.004,250.400 289.610,250.400 291.026 C 250.400 292.442,250.233 293.600,250.028 293.600 C 249.824 293.600,249.564 295.175,249.451 297.100 C 249.338 299.025,249.046 302.040,248.804 303.800 C 248.562 305.560,248.266 308.350,248.147 310.000 C 248.028 311.650,247.791 313.180,247.620 313.400 C 247.449 313.620,247.273 315.049,247.231 316.576 C 247.188 318.103,247.057 319.508,246.939 319.698 C 246.822 319.888,246.650 321.404,246.558 323.068 C 246.466 324.731,246.268 326.291,246.118 326.533 C 245.838 326.987,245.119 333.449,244.854 337.900 L 244.800 338.800 225.400 338.800 L 206.000 338.800 205.908 296.300 C 205.857 272.925,205.764 257.959,205.701 263.042 L 205.586 272.284 200.376 277.442 C 197.511 280.279,194.998 282.659,194.791 282.731 C 194.565 282.810,194.369 279.055,194.300 273.331 C 194.237 268.089,194.143 280.675,194.092 301.300 L 194.000 338.800 174.600 338.800 L 155.200 338.800 155.200 336.200 C 155.200 334.156,155.072 333.600,154.600 333.600 C 153.873 333.600,153.804 332.946,154.500 332.665 C 154.784 332.550,154.812 332.449,154.564 332.432 C 154.284 332.411,154.169 331.418,154.241 329.640 C 154.344 327.094,154.285 326.862,153.476 326.640 C 152.812 326.458,152.729 326.317,153.134 326.056 C 153.557 325.782,153.525 325.657,152.976 325.446 C 152.596 325.300,152.191 325.275,152.076 325.391 C 151.961 325.506,151.951 325.600,152.053 325.600 C 152.156 325.600,150.276 327.564,147.875 329.965 C 145.015 332.825,143.616 334.502,143.817 334.827 C 144.015 335.147,143.959 335.222,143.662 335.038 C 143.403 334.878,143.197 334.983,143.194 335.276 C 143.189 335.661,143.076 335.640,142.768 335.200 C 142.449 334.745,142.419 334.842,142.641 335.600 C 142.802 336.150,142.961 336.929,142.995 337.332 C 143.029 337.735,143.259 338.189,143.507 338.343 C 143.800 338.524,143.828 338.827,143.585 339.211 C 143.333 339.609,143.210 339.638,143.206 339.300 C 143.201 338.920,141.830 338.818,137.500 338.875 C 132.571 338.939,132.247 338.980,135.109 339.175 L 138.417 339.400 133.109 344.691 L 127.800 349.982 121.600 350.102 C 118.190 350.168,142.686 350.262,176.035 350.311 C 231.300 350.392,264.691 350.157,264.224 349.691 C 264.125 349.592,266.364 347.218,269.199 344.416 L 274.354 339.321 269.277 339.062 C 266.485 338.920,262.631 338.803,260.713 338.802 L 257.226 338.800 257.287 335.822 C 257.320 334.184,257.494 332.935,257.674 333.046 C 257.853 333.156,258.000 331.797,258.000 330.024 C 258.000 328.141,258.166 326.800,258.400 326.800 C 258.633 326.800,258.800 325.475,258.800 323.624 C 258.800 321.877,258.980 320.336,259.200 320.200 C 259.420 320.064,259.600 318.534,259.600 316.800 C 259.600 315.066,259.780 313.536,260.000 313.400 C 260.220 313.264,260.400 311.723,260.400 309.976 C 260.400 308.229,260.566 306.800,260.770 306.800 C 260.973 306.800,261.237 305.405,261.356 303.700 C 261.476 301.995,261.766 298.890,262.000 296.800 C 262.234 294.710,262.524 291.605,262.644 289.900 C 262.763 288.195,263.027 286.800,263.230 286.800 C 263.434 286.800,263.600 285.450,263.600 283.800 C 263.600 282.150,263.754 280.800,263.942 280.800 C 264.129 280.800,264.320 279.419,264.364 277.731 C 264.409 276.043,264.591 274.378,264.768 274.031 C 264.946 273.684,265.126 272.144,265.170 270.609 C 265.213 269.074,265.390 267.724,265.563 267.609 C 265.736 267.494,265.919 266.058,265.969 264.419 C 266.018 262.779,266.199 261.159,266.371 260.819 C 266.542 260.478,266.723 259.036,266.773 257.614 C 266.823 256.192,267.007 254.752,267.183 254.414 C 267.468 253.868,267.666 251.905,268.187 244.472 C 268.269 243.302,268.466 242.042,268.624 241.672 C 268.783 241.303,268.975 239.671,269.051 238.048 C 269.127 236.424,269.371 234.876,269.594 234.607 C 269.817 234.339,269.954 232.832,269.899 231.259 C 269.845 229.686,269.946 228.399,270.124 228.400 C 270.302 228.400,270.344 228.232,270.217 228.028 C 270.091 227.823,270.131 227.566,270.308 227.457 C 270.484 227.348,270.618 226.121,270.606 224.729 C 270.593 223.338,270.766 222.068,270.991 221.906 C 271.243 221.725,271.190 221.610,270.851 221.606 C 270.408 221.601,270.399 221.484,270.800 221.000 C 271.074 220.670,271.164 220.400,271.000 220.400 C 270.836 220.400,270.881 220.175,271.101 219.900 C 271.320 219.625,271.469 218.500,271.432 217.400 C 271.395 216.280,271.607 215.013,271.916 214.520 C 272.538 213.524,272.241 212.094,271.242 211.281 C 270.677 210.821,270.705 210.787,271.472 210.997 C 272.293 211.222,272.317 211.165,271.891 210.036 C 271.560 209.159,271.307 208.945,270.951 209.241 C 270.586 209.543,270.517 209.438,270.678 208.823 C 270.832 208.234,270.703 208.000,270.223 208.000 C 269.854 208.000,269.664 207.820,269.800 207.600 C 269.936 207.380,269.957 207.200,269.847 207.200 C 269.737 207.200,269.536 207.380,269.400 207.600 M317.336 262.589 C 316.879 262.910,316.411 263.078,316.296 262.963 C 316.181 262.848,315.671 263.349,315.163 264.077 C 314.655 264.805,314.119 265.490,313.973 265.600 C 313.827 265.710,313.593 266.790,313.454 268.000 C 313.314 269.210,313.013 271.550,312.784 273.200 C 312.556 274.850,312.293 276.830,312.200 277.600 C 312.107 278.370,311.937 279.689,311.823 280.531 C 311.467 283.151,313.579 286.808,315.600 287.070 C 315.930 287.113,316.709 287.256,317.332 287.388 C 318.189 287.569,318.389 287.502,318.155 287.114 C 317.908 286.703,317.975 286.704,318.488 287.119 C 318.949 287.493,319.206 287.513,319.405 287.192 C 319.557 286.946,319.888 286.821,320.140 286.913 C 320.393 287.006,321.011 286.658,321.514 286.141 C 322.017 285.623,322.287 285.189,322.114 285.175 C 321.941 285.161,322.226 284.979,322.746 284.771 C 323.572 284.440,323.623 284.307,323.146 283.719 C 322.771 283.257,322.756 283.140,323.100 283.347 C 323.563 283.625,323.823 282.879,323.626 281.837 C 323.589 281.637,323.733 281.365,323.948 281.232 C 324.163 281.099,324.391 279.598,324.454 277.895 C 324.517 276.193,324.711 274.800,324.885 274.800 C 325.058 274.800,325.200 273.731,325.200 272.424 C 325.200 271.117,325.380 269.936,325.600 269.800 C 325.820 269.664,325.997 269.338,325.994 269.076 C 325.990 268.790,325.833 268.839,325.600 269.200 C 325.068 270.023,325.097 269.339,325.637 268.331 C 325.953 267.740,325.953 267.393,325.637 267.077 C 325.397 266.837,325.200 266.302,325.200 265.889 C 325.200 263.347,319.606 261.000,317.336 262.589 M151.292 307.800 C 151.246 308.350,151.348 308.800,151.517 308.800 C 151.687 308.800,151.863 308.350,151.908 307.800 C 151.954 307.250,151.852 306.800,151.683 306.800 C 151.513 306.800,151.337 307.250,151.292 307.800 M152.665 320.440 C 152.817 321.401,152.740 321.612,152.331 321.366 C 151.912 321.114,151.916 321.190,152.349 321.723 C 152.651 322.095,153.101 322.397,153.349 322.394 C 153.597 322.391,153.530 322.213,153.200 322.000 C 152.870 321.787,152.795 321.609,153.033 321.606 C 153.272 321.603,153.467 321.330,153.467 321.000 C 153.467 320.670,153.306 320.400,153.110 320.400 C 152.913 320.400,152.856 320.232,152.983 320.028 C 153.109 319.823,153.046 319.552,152.841 319.425 C 152.628 319.294,152.553 319.726,152.665 320.440 M142.088 330.007 C 142.107 330.679,142.279 331.325,142.470 331.443 C 142.661 331.561,142.774 331.091,142.721 330.398 C 142.596 328.758,142.043 328.416,142.088 330.007 M142.460 333.580 C 142.632 334.096,143.181 334.188,143.230 333.710 C 143.246 333.550,143.044 333.348,142.780 333.260 C 142.516 333.172,142.372 333.316,142.460 333.580 M85.123 389.175 L 88.446 389.400 83.223 394.565 C 80.350 397.406,78.000 399.791,78.000 399.865 C 78.000 399.939,108.506 400.000,145.792 400.000 L 213.584 400.000 218.961 394.660 L 224.338 389.320 219.269 389.062 C 216.481 388.920,184.410 388.836,148.000 388.876 C 111.590 388.916,83.295 389.051,85.123 389.175 " stroke="none" fill="#fc9f4c" fill-rule="evenodd"></path><path id="path1" d="M186.214 0.274 C 184.901 0.368,183.562 0.660,183.237 0.923 C 182.756 1.312,182.709 1.289,182.982 0.800 C 183.255 0.312,183.217 0.293,182.779 0.700 C 182.482 0.975,181.511 1.203,180.620 1.206 C 179.427 1.211,179.158 1.314,179.600 1.600 C 180.035 1.881,179.683 1.989,178.324 1.994 C 177.292 1.997,176.336 2.180,176.200 2.400 C 176.064 2.620,175.453 2.800,174.843 2.800 C 174.233 2.800,173.610 2.923,173.459 3.074 C 173.015 3.518,170.276 4.387,169.300 4.394 C 168.805 4.397,168.400 4.580,168.400 4.800 C 168.400 5.020,168.040 5.200,167.600 5.200 C 167.160 5.200,166.800 5.341,166.800 5.513 C 166.800 5.685,166.305 5.866,165.700 5.916 C 165.095 5.966,164.540 6.185,164.467 6.403 C 164.393 6.622,163.898 6.800,163.367 6.800 C 162.835 6.800,162.400 6.936,162.400 7.102 C 162.400 7.269,161.815 7.643,161.100 7.934 C 158.139 9.140,156.809 9.818,156.805 10.124 C 156.802 10.302,156.635 10.345,156.432 10.220 C 156.230 10.095,155.793 10.264,155.461 10.596 C 155.129 10.928,154.574 11.200,154.229 11.200 C 153.883 11.200,153.600 11.380,153.600 11.600 C 153.600 11.820,153.280 12.000,152.888 12.000 C 152.497 12.000,151.917 12.360,151.600 12.800 C 151.283 13.240,150.703 13.600,150.312 13.600 C 149.920 13.600,149.600 13.780,149.600 14.000 C 149.600 14.220,149.351 14.400,149.047 14.400 C 148.744 14.400,147.923 14.985,147.224 15.700 C 146.525 16.415,145.829 17.016,145.676 17.035 C 144.953 17.125,144.024 17.716,144.189 17.982 C 144.290 18.145,143.884 18.532,143.286 18.840 C 142.689 19.148,141.210 20.390,140.000 21.600 C 138.790 22.810,137.314 24.051,136.719 24.357 C 136.125 24.664,135.675 25.024,135.719 25.159 C 135.764 25.293,134.340 26.882,132.556 28.690 C 130.772 30.499,129.381 32.047,129.464 32.131 C 129.548 32.215,128.895 33.050,128.013 33.987 C 127.130 34.923,126.524 35.878,126.666 36.107 C 126.816 36.350,126.730 36.404,126.459 36.236 C 126.199 36.076,125.889 36.225,125.754 36.575 C 125.508 37.217,124.400 37.460,124.400 36.872 C 124.400 36.692,123.500 36.300,122.400 36.000 C 121.300 35.700,120.400 35.347,120.400 35.215 C 120.400 35.083,119.905 34.934,119.300 34.884 C 118.695 34.834,118.140 34.615,118.067 34.397 C 117.993 34.178,117.218 34.000,116.343 34.000 C 115.385 34.000,114.851 33.841,115.000 33.600 C 115.149 33.358,114.604 33.200,113.624 33.200 C 112.731 33.200,112.000 33.020,112.000 32.800 C 112.000 32.580,111.100 32.400,110.000 32.400 C 108.900 32.400,108.000 32.251,108.000 32.068 C 108.000 31.886,106.970 31.695,105.712 31.644 C 104.453 31.593,103.238 31.398,103.012 31.210 C 102.395 30.699,88.000 30.674,88.000 31.184 C 88.000 31.413,87.662 31.600,87.249 31.600 C 86.791 31.600,86.303 32.069,86.000 32.800 C 85.727 33.460,85.374 34.000,85.217 34.000 C 84.692 34.000,84.745 38.720,85.280 39.658 C 86.255 41.366,87.793 42.400,89.361 42.400 C 89.896 42.400,90.393 42.573,90.467 42.784 C 90.542 43.001,93.075 43.192,96.300 43.223 C 99.435 43.254,102.000 43.441,102.000 43.639 C 102.000 43.838,103.001 44.000,104.224 44.000 C 105.447 44.000,106.357 44.145,106.247 44.323 C 106.138 44.501,106.802 44.691,107.724 44.745 C 108.646 44.799,109.571 45.013,109.780 45.221 C 109.989 45.430,110.743 45.600,111.456 45.600 C 112.169 45.600,112.864 45.780,113.000 46.000 C 113.136 46.220,113.676 46.400,114.200 46.400 C 114.724 46.400,115.264 46.580,115.400 46.800 C 115.536 47.020,116.087 47.200,116.624 47.200 C 117.161 47.200,117.600 47.380,117.600 47.600 C 117.600 47.820,118.151 48.000,118.824 48.000 C 119.537 48.000,119.944 48.167,119.800 48.400 C 119.660 48.627,119.996 48.800,120.576 48.800 C 121.139 48.800,121.600 48.980,121.600 49.200 C 121.600 49.420,121.960 49.600,122.400 49.600 C 122.840 49.600,123.200 49.741,123.200 49.913 C 123.200 50.085,123.978 50.455,124.928 50.736 C 126.773 51.280,130.800 51.275,130.800 50.729 C 130.800 50.548,131.046 50.400,131.347 50.400 C 131.648 50.400,132.370 49.680,132.953 48.800 C 133.535 47.920,134.199 47.200,134.429 47.200 C 134.659 47.200,134.745 47.035,134.620 46.832 C 134.495 46.630,134.664 46.193,134.996 45.861 C 135.328 45.529,135.600 45.054,135.600 44.805 C 135.600 44.556,135.780 44.464,136.000 44.600 C 136.220 44.736,136.400 44.549,136.400 44.184 C 136.400 43.819,136.940 43.017,137.600 42.400 C 138.260 41.783,138.800 41.164,138.800 41.023 C 138.800 40.598,139.577 39.750,144.900 34.365 C 147.705 31.527,150.000 29.407,150.000 29.653 C 150.000 29.899,150.742 29.313,151.649 28.351 C 152.556 27.388,153.157 26.870,152.984 27.200 C 152.736 27.675,154.058 26.719,155.197 25.600 C 156.141 24.672,156.937 24.233,156.647 24.800 C 156.479 25.130,156.632 25.040,156.988 24.600 C 157.343 24.160,157.813 23.800,158.032 23.800 C 158.250 23.800,158.558 23.607,158.715 23.371 C 159.029 22.898,160.427 22.236,160.900 22.336 C 161.065 22.371,161.200 22.220,161.200 22.000 C 161.200 21.780,161.560 21.600,162.000 21.600 C 162.440 21.600,162.800 21.420,162.800 21.200 C 162.800 20.980,163.160 20.800,163.600 20.800 C 164.040 20.800,164.400 20.620,164.400 20.400 C 164.400 20.180,164.683 20.000,165.029 20.000 C 165.374 20.000,165.929 19.728,166.261 19.396 C 166.593 19.064,167.030 18.895,167.232 19.020 C 167.435 19.145,167.600 19.057,167.600 18.824 C 167.600 18.591,168.016 18.400,168.525 18.400 C 169.033 18.400,169.830 18.045,170.295 17.612 C 170.890 17.057,171.200 16.968,171.339 17.312 C 171.491 17.688,171.544 17.685,171.568 17.300 C 171.586 17.025,171.949 16.800,172.376 16.800 C 172.803 16.800,173.264 16.620,173.400 16.400 C 173.536 16.180,174.097 16.000,174.647 16.000 C 175.212 16.000,175.540 15.826,175.400 15.600 C 175.250 15.358,175.804 15.200,176.800 15.200 C 177.796 15.200,178.350 15.042,178.200 14.800 C 178.056 14.567,178.455 14.400,179.153 14.400 C 179.813 14.400,180.442 14.256,180.551 14.080 C 180.660 13.904,181.525 13.714,182.474 13.658 C 183.423 13.603,184.371 13.387,184.580 13.179 C 184.789 12.970,185.878 12.800,187.000 12.800 C 188.122 12.800,189.212 12.628,189.423 12.417 C 189.634 12.206,191.920 12.007,194.503 11.974 C 197.086 11.941,199.200 11.753,199.200 11.557 C 199.200 11.361,199.560 11.200,200.000 11.200 C 200.440 11.200,200.800 11.361,200.800 11.557 C 200.800 11.753,202.906 11.941,205.479 11.974 C 208.053 12.007,210.348 12.181,210.579 12.362 C 210.811 12.543,211.982 12.720,213.183 12.756 C 214.383 12.791,215.463 12.951,215.583 13.110 C 215.801 13.402,215.949 13.430,217.824 13.540 C 218.387 13.573,218.754 13.751,218.640 13.936 C 218.526 14.120,219.087 14.296,219.887 14.326 C 220.687 14.356,221.471 14.591,221.630 14.849 C 221.789 15.106,222.202 15.208,222.548 15.075 C 222.894 14.943,223.407 15.051,223.688 15.317 C 223.970 15.583,224.642 15.849,225.183 15.910 C 225.723 15.970,226.290 16.222,226.442 16.468 C 226.595 16.715,227.003 16.808,227.349 16.675 C 227.720 16.533,228.143 16.714,228.377 17.117 C 228.697 17.665,228.779 17.682,228.794 17.200 C 228.810 16.667,228.855 16.667,229.200 17.200 C 229.413 17.530,229.591 17.631,229.594 17.424 C 229.597 17.216,229.851 17.390,230.157 17.808 C 230.617 18.437,230.820 18.482,231.324 18.063 C 231.819 17.652,231.999 17.655,232.268 18.078 C 232.450 18.365,233.024 18.838,233.542 19.130 C 234.060 19.421,234.375 19.483,234.241 19.267 C 234.106 19.048,234.420 19.074,234.953 19.325 C 235.478 19.573,235.819 20.006,235.711 20.288 C 235.603 20.569,235.724 20.800,235.981 20.800 C 236.237 20.800,236.344 20.632,236.217 20.428 C 236.091 20.223,236.182 19.935,236.421 19.787 C 236.659 19.640,236.765 19.287,236.657 19.003 C 236.546 18.716,238.041 16.939,240.025 14.998 C 241.986 13.079,243.473 11.318,243.330 11.086 C 243.168 10.825,243.318 10.760,243.722 10.915 C 244.081 11.052,244.481 10.993,244.611 10.783 C 244.741 10.572,244.477 10.400,244.024 10.400 C 243.571 10.400,243.200 10.220,243.200 10.000 C 243.200 9.780,243.001 9.600,242.757 9.600 C 242.514 9.600,242.416 9.864,242.540 10.187 C 242.664 10.510,242.565 10.898,242.321 11.049 C 242.076 11.200,241.973 11.161,242.091 10.962 C 242.557 10.178,241.669 8.857,240.824 9.078 C 240.342 9.204,240.000 9.101,240.000 8.829 C 240.000 8.574,239.775 8.394,239.500 8.430 C 238.563 8.551,237.397 8.338,237.896 8.136 C 238.570 7.864,237.391 6.664,236.696 6.916 C 236.423 7.015,235.854 6.804,235.431 6.448 C 234.811 5.925,234.728 5.916,235.000 6.400 C 235.242 6.830,235.111 6.801,234.536 6.299 C 234.096 5.914,233.615 5.719,233.468 5.866 C 233.320 6.013,233.200 5.923,233.200 5.667 C 233.200 5.410,232.660 5.200,232.000 5.200 C 231.340 5.200,230.800 5.020,230.800 4.800 C 230.800 4.580,230.350 4.400,229.800 4.400 C 229.250 4.400,228.800 4.209,228.800 3.976 C 228.800 3.743,228.652 3.644,228.471 3.756 C 228.291 3.868,227.640 3.698,227.026 3.380 C 226.411 3.061,225.490 2.800,224.978 2.800 C 224.466 2.800,223.936 2.620,223.800 2.400 C 223.664 2.180,222.933 2.000,222.176 2.000 C 221.419 2.000,220.800 1.838,220.800 1.640 C 220.800 1.442,220.165 1.280,219.389 1.280 C 218.613 1.280,217.679 1.037,217.312 0.740 C 216.741 0.277,216.697 0.286,217.000 0.800 C 217.312 1.329,217.268 1.331,216.633 0.815 C 215.914 0.231,192.613 -0.183,186.214 0.274 M250.616 14.827 C 250.761 15.061,250.971 15.162,251.083 15.051 C 251.194 14.939,251.660 15.197,252.118 15.624 C 252.576 16.051,253.125 16.400,253.338 16.400 C 253.550 16.400,253.201 15.950,252.562 15.400 C 251.399 14.400,250.120 14.023,250.616 14.827 M237.462 20.886 C 237.345 21.331,237.495 21.600,237.861 21.600 C 238.183 21.600,238.336 21.420,238.200 21.200 C 238.064 20.980,238.233 20.800,238.576 20.800 C 238.919 20.800,239.200 20.659,239.200 20.486 C 239.200 19.841,237.641 20.199,237.462 20.886 M242.571 24.081 C 242.407 24.366,242.418 24.468,242.596 24.306 C 242.775 24.145,243.158 24.325,243.448 24.706 C 243.737 25.088,243.980 25.197,243.987 24.949 C 244.010 24.155,242.916 23.484,242.571 24.081 M272.800 34.910 C 272.800 35.465,273.944 37.214,274.121 36.928 C 274.234 36.745,273.983 36.172,273.563 35.654 C 273.143 35.135,272.800 34.801,272.800 34.910 M43.300 43.922 C 42.585 43.993,42.000 44.197,42.000 44.377 C 42.000 44.556,41.460 44.927,40.800 45.200 C 40.140 45.473,39.600 45.843,39.600 46.022 C 39.600 46.200,39.234 46.462,38.787 46.604 C 38.340 46.746,37.538 47.298,37.005 47.831 C 36.472 48.364,35.848 48.800,35.618 48.800 C 35.388 48.800,35.200 48.980,35.200 49.200 C 35.200 49.420,35.002 49.600,34.760 49.600 C 34.519 49.600,33.817 50.140,33.200 50.800 C 32.583 51.460,31.890 52.000,31.659 52.000 C 31.429 52.000,31.056 52.315,30.832 52.700 C 30.608 53.085,30.419 53.272,30.412 53.115 C 30.389 52.562,21.600 61.685,21.600 62.262 C 21.600 62.584,21.420 62.736,21.200 62.600 C 20.980 62.464,20.800 62.543,20.800 62.776 C 20.800 63.008,20.080 63.963,19.200 64.897 C 18.320 65.831,17.600 66.733,17.600 66.901 C 17.600 67.070,17.060 67.772,16.400 68.463 C 15.740 69.154,15.200 69.879,15.200 70.076 C 15.200 70.273,14.840 70.820,14.400 71.292 C 13.960 71.764,13.600 72.387,13.600 72.675 C 13.600 72.964,13.420 73.200,13.200 73.200 C 12.980 73.200,12.800 73.545,12.800 73.967 C 12.800 74.388,12.658 74.793,12.486 74.867 C 11.935 75.100,10.400 77.500,10.400 78.128 C 10.400 78.461,10.265 78.793,10.100 78.867 C 9.689 79.049,8.400 81.890,8.400 82.614 C 8.400 82.936,8.220 83.200,8.000 83.200 C 7.780 83.200,7.600 83.472,7.600 83.805 C 7.600 84.138,7.420 84.768,7.200 85.205 C 6.980 85.642,6.620 86.358,6.400 86.795 C 6.180 87.232,6.000 87.862,6.000 88.195 C 6.000 88.528,5.820 88.800,5.600 88.800 C 5.380 88.800,5.200 89.239,5.200 89.776 C 5.200 90.313,5.020 90.864,4.800 91.000 C 4.580 91.136,4.400 91.687,4.400 92.224 C 4.400 92.761,4.220 93.200,4.000 93.200 C 3.780 93.200,3.600 93.729,3.600 94.376 C 3.600 95.023,3.420 95.664,3.200 95.800 C 2.980 95.936,2.800 96.476,2.800 97.000 C 2.800 97.524,2.620 98.064,2.400 98.200 C 2.180 98.336,2.000 99.067,2.000 99.824 C 2.000 100.581,1.820 101.200,1.600 101.200 C 1.380 101.200,1.200 102.100,1.200 103.200 C 1.200 104.300,1.050 105.200,0.866 105.200 C 0.015 105.200,-0.147 138.413,0.700 139.260 C 0.975 139.535,1.200 140.534,1.200 141.480 C 1.200 142.426,1.380 143.200,1.600 143.200 C 1.820 143.200,2.000 143.920,2.000 144.800 C 2.000 145.680,2.180 146.400,2.400 146.400 C 2.620 146.400,2.800 147.019,2.800 147.776 C 2.800 148.533,2.944 149.242,3.121 149.351 C 3.297 149.460,3.693 150.472,4.000 151.600 C 4.307 152.728,4.703 153.740,4.879 153.849 C 5.056 153.958,5.200 154.487,5.200 155.024 C 5.200 155.561,5.380 156.000,5.600 156.000 C 5.820 156.000,6.000 156.450,6.000 157.000 C 6.000 157.550,6.180 158.000,6.400 158.000 C 6.620 158.000,6.800 158.360,6.800 158.800 C 6.800 159.240,6.980 159.600,7.200 159.600 C 7.420 159.600,7.600 159.960,7.600 160.400 C 7.600 160.840,7.780 161.200,8.000 161.200 C 8.220 161.200,8.403 161.515,8.406 161.900 C 8.409 162.285,8.666 163.050,8.976 163.600 C 9.849 165.148,11.325 168.167,11.364 168.487 C 11.384 168.645,11.715 169.142,12.100 169.592 C 12.485 170.041,12.800 170.587,12.800 170.805 C 12.800 171.022,12.935 171.200,13.101 171.200 C 13.266 171.200,13.829 172.006,14.352 172.992 C 14.875 173.977,15.460 174.687,15.651 174.568 C 15.843 174.450,16.000 174.599,16.000 174.901 C 16.000 175.202,16.356 175.831,16.791 176.299 C 17.227 176.766,17.632 177.364,17.691 177.627 C 17.751 177.891,18.430 178.757,19.200 179.553 C 19.970 180.349,20.854 181.492,21.164 182.093 C 21.474 182.695,22.059 183.292,22.464 183.420 C 22.869 183.549,23.200 183.805,23.200 183.990 C 23.200 184.561,26.945 188.208,27.385 188.067 C 27.613 187.993,27.663 188.070,27.496 188.237 C 27.051 188.683,28.810 190.400,29.713 190.400 C 30.235 190.400,30.411 190.594,30.255 191.000 C 30.113 191.372,30.257 191.600,30.636 191.600 C 30.996 191.600,31.130 191.790,30.962 192.062 C 30.786 192.347,30.852 192.415,31.135 192.240 C 31.388 192.084,32.053 192.417,32.622 192.986 C 33.189 193.552,33.818 193.913,34.021 193.787 C 34.227 193.660,34.274 193.863,34.127 194.245 C 33.949 194.711,34.015 194.838,34.332 194.642 C 34.613 194.468,34.800 194.602,34.800 194.976 C 34.800 195.319,35.072 195.600,35.403 195.600 C 35.735 195.600,36.562 196.095,37.241 196.700 C 37.920 197.305,38.646 197.800,38.853 197.800 C 39.060 197.800,39.400 198.070,39.608 198.400 C 39.946 198.933,39.991 198.933,40.019 198.400 C 40.037 198.052,40.203 198.178,40.412 198.700 C 40.626 199.231,41.117 199.600,41.611 199.600 C 42.071 199.600,42.344 199.768,42.217 199.973 C 42.090 200.178,42.484 200.403,43.093 200.473 C 43.753 200.549,44.200 200.842,44.201 201.200 C 44.202 201.530,44.562 201.808,45.001 201.819 C 45.440 201.829,45.764 202.028,45.719 202.260 C 45.675 202.493,46.125 202.664,46.719 202.642 C 47.387 202.616,47.762 202.791,47.700 203.100 C 47.645 203.375,47.780 203.600,48.000 203.600 C 48.220 203.600,48.418 203.195,48.441 202.700 C 48.473 201.984,48.567 202.067,48.901 203.108 C 49.237 204.157,49.476 204.366,50.110 204.165 C 50.606 204.008,50.805 204.069,50.644 204.330 C 50.176 205.087,51.194 205.263,51.903 204.548 C 52.566 203.879,52.566 203.858,51.900 204.110 C 51.501 204.261,51.200 204.189,51.200 203.941 C 51.200 203.702,50.840 203.601,50.400 203.716 C 49.960 203.831,49.600 203.741,49.600 203.516 C 49.600 203.291,50.036 203.190,50.569 203.292 C 52.011 203.568,59.163 196.399,58.224 195.620 C 57.329 194.877,57.454 194.294,58.400 194.800 C 58.840 195.035,59.200 195.492,59.200 195.814 C 59.200 196.136,59.477 196.400,59.816 196.400 C 60.309 196.400,60.269 196.226,59.616 195.525 C 59.167 195.043,58.800 194.503,58.800 194.325 C 58.800 194.146,58.423 194.000,57.962 194.000 C 57.100 194.000,54.704 192.835,54.467 192.300 C 54.393 192.135,54.033 192.003,53.667 192.006 C 53.090 192.011,53.081 192.065,53.600 192.400 C 54.118 192.735,54.108 192.789,53.527 192.794 C 53.157 192.797,52.741 192.444,52.603 192.008 C 52.464 191.573,52.227 191.234,52.076 191.255 C 51.286 191.368,50.781 191.154,51.000 190.800 C 51.140 190.573,50.804 190.400,50.224 190.400 C 49.661 190.400,49.200 190.220,49.200 190.000 C 49.200 189.780,48.919 189.600,48.576 189.600 C 48.233 189.600,48.064 189.420,48.200 189.200 C 48.336 188.980,48.167 188.800,47.824 188.800 C 47.481 188.800,47.200 188.609,47.200 188.376 C 47.200 188.143,47.025 188.061,46.812 188.193 C 46.598 188.325,46.026 187.975,45.539 187.416 C 45.053 186.857,44.408 186.400,44.104 186.400 C 43.801 186.400,43.648 186.246,43.764 186.058 C 43.880 185.871,43.493 185.498,42.905 185.229 C 42.316 184.961,41.589 184.392,41.290 183.964 C 40.990 183.537,40.550 183.307,40.311 183.455 C 40.068 183.605,39.990 183.540,40.134 183.307 C 40.463 182.775,39.371 181.847,38.818 182.189 C 38.443 182.421,38.225 181.909,38.353 181.100 C 38.379 180.935,38.228 180.800,38.017 180.800 C 37.807 180.800,36.142 179.280,34.317 177.423 C 29.533 172.553,28.400 171.280,28.400 170.772 C 28.400 170.524,27.860 169.817,27.200 169.200 C 26.540 168.583,26.000 167.791,26.000 167.440 C 26.000 167.088,25.842 166.800,25.649 166.800 C 25.455 166.800,25.070 166.253,24.793 165.584 C 24.516 164.915,23.935 164.120,23.502 163.816 C 23.068 163.512,22.822 163.088,22.954 162.874 C 23.087 162.659,22.929 162.382,22.604 162.257 C 22.270 162.129,22.116 161.764,22.248 161.419 C 22.385 161.062,22.217 160.705,21.844 160.561 C 21.492 160.427,21.310 160.145,21.439 159.937 C 21.568 159.728,21.342 159.252,20.937 158.879 C 20.532 158.505,20.140 157.840,20.067 157.400 C 19.993 156.960,19.768 156.429,19.567 156.220 C 19.365 156.011,19.200 155.516,19.200 155.120 C 19.200 154.724,19.020 154.400,18.800 154.400 C 18.580 154.400,18.400 154.040,18.400 153.600 C 18.400 153.160,18.220 152.800,18.000 152.800 C 17.780 152.800,17.600 152.445,17.600 152.012 C 17.600 151.579,17.240 150.583,16.800 149.800 C 16.360 149.017,16.000 147.931,16.000 147.388 C 16.000 146.845,15.820 146.400,15.600 146.400 C 15.380 146.400,15.200 145.871,15.200 145.224 C 15.200 144.577,15.020 143.936,14.800 143.800 C 14.580 143.664,14.400 143.013,14.400 142.353 C 14.400 141.655,14.233 141.256,14.000 141.400 C 13.670 141.604,13.348 138.797,13.553 137.500 C 13.579 137.335,13.420 137.200,13.200 137.200 C 12.980 137.200,12.800 136.221,12.800 135.024 C 12.800 133.827,12.620 132.736,12.400 132.600 C 12.177 132.462,12.000 130.605,12.000 128.402 C 12.000 126.230,11.821 123.980,11.601 123.403 C 11.382 122.826,11.356 122.449,11.544 122.566 C 11.732 122.682,11.922 120.307,11.965 117.288 C 12.008 114.270,12.214 111.629,12.422 111.420 C 12.630 111.211,12.800 110.086,12.800 108.920 C 12.800 107.754,12.980 106.800,13.200 106.800 C 13.420 106.800,13.600 106.080,13.600 105.200 C 13.600 104.320,13.780 103.600,14.000 103.600 C 14.220 103.600,14.400 102.981,14.400 102.224 C 14.400 101.467,14.580 100.736,14.800 100.600 C 15.020 100.464,15.200 99.823,15.200 99.176 C 15.200 98.529,15.380 98.000,15.600 98.000 C 15.820 98.000,16.000 97.471,16.000 96.824 C 16.000 96.177,16.180 95.536,16.400 95.400 C 16.620 95.264,16.800 94.793,16.800 94.353 C 16.800 93.913,16.942 93.640,17.115 93.748 C 17.288 93.855,17.470 93.460,17.519 92.871 C 17.567 92.282,17.785 91.740,18.003 91.667 C 18.222 91.593,18.400 91.188,18.400 90.767 C 18.400 90.345,18.610 90.000,18.867 90.000 C 19.123 90.000,19.213 89.880,19.066 89.732 C 18.919 89.585,19.097 89.135,19.461 88.732 C 19.826 88.330,19.978 88.000,19.800 88.000 C 19.622 88.000,19.819 87.621,20.238 87.158 C 20.657 86.695,20.975 86.200,20.945 86.058 C 20.837 85.553,22.495 82.400,22.868 82.400 C 23.076 82.400,23.144 82.232,23.017 82.028 C 22.891 81.823,22.972 81.541,23.199 81.400 C 23.426 81.260,23.993 80.393,24.459 79.473 C 24.926 78.553,25.419 77.710,25.554 77.600 C 25.690 77.490,26.042 76.932,26.336 76.360 C 26.630 75.789,27.575 74.573,28.435 73.660 C 29.296 72.746,30.000 71.789,30.000 71.533 C 30.000 71.276,30.111 71.178,30.248 71.314 C 30.487 71.553,31.600 70.675,31.600 70.247 C 31.600 70.131,32.005 69.608,32.500 69.084 C 32.995 68.560,33.940 67.475,34.600 66.674 C 35.260 65.873,35.935 65.213,36.100 65.209 C 36.264 65.204,37.141 64.480,38.048 63.600 C 38.955 62.720,39.865 62.000,40.072 62.000 C 40.278 62.000,40.336 61.820,40.200 61.600 C 40.064 61.380,40.244 61.200,40.600 61.200 C 40.956 61.200,41.136 61.020,41.000 60.800 C 40.864 60.580,41.007 60.400,41.317 60.400 C 41.627 60.400,42.413 59.905,43.062 59.300 C 43.711 58.695,44.908 57.857,45.721 57.437 C 46.534 57.017,47.200 56.522,47.200 56.337 C 47.200 56.152,47.435 56.000,47.722 56.000 C 51.107 56.000,52.654 48.227,49.830 45.403 C 48.414 43.987,46.657 43.589,43.300 43.922 M55.245 194.515 C 54.918 194.842,54.800 194.797,54.800 194.347 C 54.800 193.552,55.338 193.014,55.537 193.610 C 55.621 193.863,55.490 194.270,55.245 194.515 M62.898 196.894 C 62.989 197.166,63.540 197.425,64.124 197.469 C 64.992 197.536,65.096 197.453,64.693 197.015 C 64.422 196.720,64.140 196.641,64.067 196.839 C 63.993 197.038,63.758 197.200,63.543 197.200 C 63.328 197.200,63.264 197.020,63.400 196.800 C 63.536 196.580,63.442 196.400,63.190 196.400 C 62.939 196.400,62.807 196.622,62.898 196.894 M66.224 197.787 C 67.242 198.558,67.824 198.567,67.057 197.800 C 66.727 197.470,66.230 197.200,65.952 197.200 C 65.669 197.200,65.788 197.458,66.224 197.787 M54.274 206.151 C 54.139 206.503,54.157 206.754,54.314 206.710 C 54.471 206.666,54.994 206.849,55.476 207.116 C 56.135 207.482,56.422 207.488,56.638 207.139 C 56.815 206.852,56.748 206.785,56.462 206.962 C 56.208 207.119,56.000 207.046,56.000 206.800 C 56.000 206.554,55.831 206.457,55.625 206.585 C 55.418 206.712,55.085 206.523,54.884 206.165 C 54.552 205.571,54.497 205.570,54.274 206.151 " stroke="none" fill="#fcd454" fill-rule="evenodd"></path><path id="path2" d="M243.387 11.178 C 243.499 11.360,241.986 13.079,240.025 14.998 C 238.041 16.939,236.546 18.716,236.657 19.003 C 236.765 19.287,236.634 19.655,236.365 19.821 C 236.064 20.008,235.979 19.957,236.145 19.689 C 236.292 19.451,236.202 19.125,235.945 18.966 C 235.652 18.785,235.584 18.850,235.762 19.138 C 236.147 19.761,235.102 19.732,234.421 19.100 C 233.988 18.698,233.941 18.703,234.180 19.125 C 234.462 19.622,235.788 20.288,236.555 20.318 C 236.751 20.325,237.063 20.572,237.249 20.866 C 237.519 21.292,237.589 21.275,237.594 20.786 C 237.597 20.440,237.950 20.171,238.400 20.171 C 238.840 20.171,239.200 20.313,239.200 20.486 C 239.200 20.659,238.908 20.800,238.551 20.800 C 238.011 20.800,237.988 20.904,238.415 21.418 C 238.697 21.758,239.156 21.949,239.435 21.842 C 240.051 21.606,240.911 22.544,240.497 23.001 C 240.333 23.180,240.522 23.212,240.915 23.070 C 241.353 22.913,241.714 23.031,241.846 23.376 C 241.965 23.685,242.327 24.040,242.652 24.164 C 243.042 24.314,243.145 24.223,242.956 23.895 C 242.799 23.623,243.433 24.165,244.366 25.100 C 245.299 26.035,246.318 26.800,246.631 26.800 C 246.944 26.800,247.200 26.941,247.200 27.114 C 247.200 27.286,247.745 27.749,248.411 28.143 C 249.077 28.536,250.022 29.259,250.512 29.748 C 251.002 30.238,251.717 30.759,252.101 30.907 C 252.485 31.054,252.800 31.451,252.800 31.787 C 252.800 32.340,253.270 32.578,254.100 32.447 C 254.265 32.421,254.356 32.535,254.303 32.700 C 254.180 33.080,255.270 34.642,255.800 34.846 C 256.020 34.931,256.155 35.135,256.100 35.300 C 256.045 35.465,256.281 35.600,256.624 35.600 C 256.967 35.600,257.144 35.767,257.018 35.971 C 256.892 36.175,257.151 36.457,257.594 36.598 C 258.037 36.739,258.400 37.122,258.400 37.451 C 258.400 37.779,258.580 37.936,258.800 37.800 C 259.020 37.664,259.200 37.703,259.200 37.887 C 259.200 38.071,259.740 38.813,260.400 39.536 C 261.060 40.258,261.600 41.029,261.600 41.248 C 261.600 41.468,261.811 41.517,262.068 41.358 C 262.372 41.170,262.456 41.278,262.306 41.668 C 262.169 42.025,262.465 42.559,263.038 42.990 C 263.567 43.387,264.000 43.914,264.000 44.160 C 264.000 44.407,264.450 45.093,265.000 45.687 C 265.550 46.280,266.000 46.971,266.000 47.222 C 266.000 47.647,267.114 48.800,269.186 50.519 C 270.082 51.262,273.819 51.416,274.245 50.728 C 274.356 50.547,274.782 50.400,275.190 50.400 C 275.599 50.400,275.993 50.222,276.067 50.003 C 276.140 49.785,276.695 49.566,277.300 49.516 C 277.905 49.466,278.400 49.318,278.400 49.187 C 278.400 48.859,281.270 47.772,281.743 47.921 C 281.954 47.988,282.233 47.897,282.363 47.719 C 282.666 47.305,285.250 46.400,286.128 46.400 C 286.498 46.400,286.800 46.220,286.800 46.000 C 286.800 45.780,287.419 45.600,288.176 45.600 C 288.933 45.600,289.664 45.420,289.800 45.200 C 289.936 44.980,290.757 44.800,291.624 44.800 C 292.491 44.800,293.200 44.620,293.200 44.400 C 293.200 44.180,294.179 44.000,295.376 44.000 C 296.573 44.000,297.664 43.820,297.800 43.600 C 297.938 43.377,299.804 43.200,302.024 43.200 C 304.408 43.200,306.000 43.040,306.000 42.800 C 306.000 42.580,306.191 42.400,306.424 42.400 C 306.657 42.400,306.752 42.554,306.636 42.742 C 306.519 42.930,306.824 43.029,307.312 42.961 C 310.055 42.578,312.055 42.520,311.554 42.837 C 311.160 43.087,311.324 43.190,312.124 43.194 C 312.907 43.198,313.162 43.049,312.965 42.700 C 312.739 42.300,312.790 42.300,313.221 42.700 C 313.572 43.026,315.058 43.200,317.480 43.200 C 319.946 43.200,321.200 43.350,321.200 43.645 C 321.200 43.913,321.681 44.020,322.408 43.914 C 323.126 43.808,323.795 43.954,324.061 44.273 C 324.397 44.678,324.640 44.699,325.053 44.356 C 325.444 44.032,325.600 44.028,325.600 44.343 C 325.600 44.618,326.213 44.725,327.226 44.628 C 328.407 44.514,328.915 44.635,329.082 45.069 C 329.269 45.556,329.374 45.568,329.650 45.134 C 329.860 44.801,329.990 44.772,329.994 45.057 C 329.997 45.309,330.279 45.622,330.621 45.753 C 330.978 45.890,331.137 45.822,330.996 45.594 C 330.651 45.036,332.187 45.325,332.957 45.964 C 333.306 46.254,333.506 46.628,333.403 46.795 C 333.299 46.963,333.671 47.100,334.229 47.100 L 335.244 47.100 334.418 46.331 C 333.331 45.318,333.551 44.958,337.761 40.856 C 340.012 38.663,341.401 37.591,341.796 37.743 C 342.210 37.902,342.400 37.724,342.400 37.180 C 342.400 36.536,342.196 36.421,341.334 36.578 C 340.620 36.707,340.098 36.544,339.758 36.086 C 339.330 35.509,339.118 35.480,338.424 35.903 C 337.628 36.390,337.448 36.250,337.519 35.200 C 337.526 35.090,336.789 34.948,335.880 34.884 C 334.971 34.820,334.089 34.550,333.920 34.284 C 333.751 34.018,333.609 33.956,333.606 34.146 C 333.603 34.336,333.132 34.185,332.559 33.810 C 331.987 33.435,331.185 33.215,330.778 33.322 C 330.370 33.428,329.714 33.270,329.319 32.970 C 328.412 32.283,327.860 32.246,328.253 32.900 C 328.482 33.281,328.417 33.294,327.977 32.955 C 327.660 32.710,327.130 32.495,326.800 32.478 C 325.972 32.435,325.076 32.221,324.600 31.951 C 324.380 31.827,323.304 31.686,322.209 31.639 C 321.114 31.592,320.082 31.339,319.915 31.077 C 319.693 30.727,319.611 30.747,319.606 31.149 C 319.602 31.554,319.464 31.585,319.080 31.266 C 318.427 30.725,298.515 30.691,298.181 31.231 C 298.055 31.434,296.894 31.600,295.600 31.600 C 294.306 31.600,293.136 31.780,293.000 32.000 C 292.864 32.220,291.964 32.400,291.000 32.400 C 290.036 32.400,289.136 32.580,289.000 32.800 C 288.864 33.020,288.054 33.200,287.200 33.200 C 286.346 33.200,285.536 33.380,285.400 33.600 C 285.264 33.820,284.634 34.000,284.000 34.000 C 283.366 34.000,282.736 34.180,282.600 34.400 C 282.464 34.620,281.823 34.800,281.176 34.800 C 280.529 34.800,280.000 34.980,280.000 35.200 C 280.000 35.420,279.550 35.600,279.000 35.600 C 278.450 35.600,278.000 35.736,278.000 35.903 C 278.000 36.216,275.198 37.200,274.304 37.200 C 274.024 37.200,273.571 36.705,273.298 36.100 C 273.024 35.495,272.125 34.248,271.300 33.329 C 268.864 30.614,268.400 30.014,268.400 29.572 C 268.400 29.341,268.220 29.264,268.000 29.400 C 267.780 29.536,267.600 29.356,267.600 29.000 C 267.600 28.644,267.420 28.464,267.200 28.600 C 266.980 28.736,266.795 28.612,266.788 28.324 C 266.781 28.036,266.229 27.350,265.560 26.800 C 264.892 26.250,263.733 25.215,262.986 24.500 C 262.238 23.785,261.430 23.200,261.190 23.200 C 260.949 23.200,260.864 23.020,261.000 22.800 C 261.136 22.580,261.051 22.400,260.811 22.400 C 260.571 22.400,259.713 21.680,258.904 20.800 C 258.095 19.920,257.209 19.200,256.936 19.200 C 256.663 19.200,256.296 18.967,256.120 18.682 C 255.453 17.601,250.216 14.451,249.887 14.933 C 249.687 15.224,249.610 15.099,249.683 14.600 C 249.762 14.058,249.584 13.816,249.132 13.850 C 248.685 13.884,248.542 13.696,248.700 13.285 C 248.843 12.911,248.770 12.771,248.513 12.930 C 248.281 13.074,247.878 12.935,247.618 12.621 C 247.358 12.308,246.617 11.936,245.972 11.794 C 245.328 11.652,244.800 11.409,244.800 11.253 C 244.800 11.098,244.436 10.943,243.991 10.909 C 243.547 10.876,243.274 10.997,243.387 11.178 M354.833 43.346 C 355.640 44.051,356.952 44.473,356.451 43.865 C 356.149 43.499,355.624 43.200,355.284 43.200 C 354.945 43.200,354.742 43.266,354.833 43.346 M55.092 193.442 C 54.931 193.602,54.800 194.009,54.800 194.347 C 54.800 194.797,54.918 194.842,55.245 194.515 C 55.490 194.270,55.621 193.863,55.537 193.610 C 55.452 193.357,55.252 193.281,55.092 193.442 M57.600 194.737 C 57.600 194.938,57.881 195.335,58.224 195.620 C 59.163 196.399,52.011 203.568,50.569 203.292 C 50.027 203.188,49.600 203.297,49.600 203.539 C 49.600 204.077,51.003 204.864,51.347 204.519 C 51.486 204.380,51.600 204.471,51.600 204.721 C 51.600 204.980,51.886 205.065,52.266 204.919 C 52.713 204.748,52.836 204.817,52.642 205.132 C 52.459 205.428,52.639 205.600,53.134 205.600 C 53.563 205.600,54.015 205.861,54.137 206.181 C 54.264 206.511,54.714 206.694,55.180 206.604 C 55.631 206.517,56.000 206.626,56.000 206.847 C 56.000 207.067,56.180 207.136,56.400 207.000 C 56.620 206.864,56.800 206.938,56.800 207.164 C 56.800 207.390,57.070 207.471,57.400 207.345 C 57.730 207.218,58.000 207.324,58.000 207.581 C 58.000 207.837,58.168 207.944,58.372 207.817 C 58.577 207.691,58.860 207.773,59.000 208.000 C 59.140 208.227,59.423 208.309,59.628 208.183 C 59.832 208.056,60.000 208.143,60.000 208.376 C 60.000 208.609,60.435 208.800,60.967 208.800 C 61.498 208.800,61.993 208.972,62.067 209.182 C 62.140 209.393,62.863 209.609,63.674 209.663 C 64.485 209.716,65.059 209.904,64.951 210.080 C 64.842 210.256,65.033 210.400,65.376 210.400 C 65.915 210.400,66.198 211.107,66.052 212.086 C 66.028 212.243,66.173 212.803,66.373 213.329 C 66.573 213.855,66.778 215.346,66.829 216.643 C 66.880 217.939,67.087 219.327,67.289 219.727 C 67.492 220.127,67.657 221.429,67.657 222.621 C 67.657 223.813,67.824 224.891,68.029 225.018 C 68.233 225.144,68.400 226.371,68.400 227.744 C 68.400 229.117,68.565 230.411,68.768 230.620 C 68.970 230.829,69.237 232.170,69.361 233.600 C 69.936 240.238,70.092 241.425,70.434 241.780 C 70.635 241.989,70.800 243.258,70.800 244.600 C 70.800 245.942,70.965 247.211,71.168 247.420 C 71.370 247.629,71.637 248.970,71.761 250.400 C 72.320 256.858,72.503 258.214,72.844 258.426 C 73.044 258.550,73.225 259.857,73.247 261.329 C 73.270 262.802,73.448 264.106,73.644 264.227 C 73.840 264.348,74.000 265.697,74.000 267.224 C 74.000 268.808,74.172 270.000,74.400 270.000 C 74.626 270.000,74.800 271.141,74.800 272.624 C 74.800 274.271,74.949 275.155,75.200 275.000 C 75.454 274.843,75.600 275.937,75.600 278.000 C 75.600 279.786,75.738 281.162,75.906 281.058 C 76.075 280.954,76.235 281.972,76.263 283.320 C 76.291 284.668,76.479 285.826,76.679 285.893 C 76.880 285.960,77.006 286.582,76.958 287.274 C 76.910 287.967,77.026 288.941,77.215 289.440 C 77.449 290.054,77.405 290.410,77.080 290.542 C 76.816 290.649,76.921 290.751,77.314 290.768 C 77.895 290.794,77.951 290.945,77.613 291.576 C 77.332 292.101,77.329 292.433,77.605 292.603 C 77.830 292.742,77.908 293.024,77.781 293.231 C 77.476 293.724,77.951 295.200,78.414 295.200 C 78.613 295.200,78.662 294.885,78.524 294.500 C 78.386 294.115,78.408 293.922,78.574 294.071 C 78.740 294.220,78.915 294.915,78.964 295.614 C 79.038 296.689,78.978 296.784,78.573 296.231 C 78.141 295.639,78.071 295.637,77.852 296.209 C 77.694 296.622,77.769 296.743,78.068 296.558 C 78.379 296.366,78.454 296.551,78.300 297.137 C 78.176 297.612,78.205 298.000,78.365 298.000 C 78.524 298.000,78.597 298.731,78.526 299.624 C 78.379 301.489,79.076 303.248,79.617 302.373 C 79.798 302.079,79.827 301.650,79.680 301.419 C 79.282 300.796,79.322 300.237,79.787 299.906 C 80.027 299.735,79.908 299.610,79.500 299.606 C 79.115 299.603,78.800 299.409,78.800 299.176 C 78.800 298.943,78.948 298.844,79.128 298.955 C 79.308 299.067,81.332 297.275,83.626 294.974 C 85.920 292.673,88.009 290.871,88.269 290.971 C 88.928 291.224,89.575 290.334,89.496 289.282 C 89.426 288.356,88.820 288.037,88.772 288.900 C 88.756 289.175,88.595 289.040,88.414 288.600 C 88.199 288.080,88.289 287.476,88.669 286.873 C 89.068 286.240,89.127 285.794,88.853 285.464 C 88.632 285.198,88.506 284.305,88.571 283.480 C 88.654 282.438,88.493 281.852,88.045 281.566 C 87.575 281.265,87.535 281.097,87.897 280.945 C 88.223 280.807,88.274 280.506,88.046 280.068 C 87.855 279.700,87.739 278.621,87.789 277.668 C 87.839 276.716,87.681 275.726,87.440 275.468 C 87.198 275.211,87.000 273.830,87.000 272.400 C 87.000 270.970,86.866 269.602,86.701 269.361 C 86.537 269.119,86.357 267.859,86.301 266.561 C 86.246 265.262,86.056 264.094,85.879 263.964 C 85.703 263.834,85.554 262.620,85.547 261.267 C 85.541 259.914,85.370 258.705,85.168 258.580 C 84.965 258.455,84.800 257.093,84.800 255.553 C 84.800 253.788,84.652 252.844,84.400 253.000 C 84.082 253.197,83.816 249.376,84.034 247.745 C 84.053 247.604,83.880 247.373,83.650 247.231 C 83.420 247.089,83.199 245.764,83.158 244.286 C 83.117 242.809,82.930 241.600,82.742 241.600 C 82.554 241.600,82.400 240.441,82.400 239.024 C 82.400 237.607,82.220 236.336,82.000 236.200 C 81.780 236.064,81.600 234.804,81.600 233.400 C 81.600 231.996,81.420 230.736,81.200 230.600 C 80.980 230.464,80.800 229.204,80.800 227.800 C 80.800 226.396,80.620 225.136,80.400 225.000 C 80.180 224.864,80.000 223.518,80.000 222.010 C 80.000 220.501,79.830 219.207,79.622 219.133 C 79.415 219.060,79.205 217.867,79.156 216.483 C 79.107 215.098,78.917 213.872,78.734 213.759 C 78.550 213.646,78.400 212.393,78.400 210.976 C 78.400 209.525,78.225 208.400,78.000 208.400 C 77.780 208.400,77.600 207.508,77.600 206.419 C 77.600 204.429,76.962 202.400,76.336 202.400 C 76.151 202.400,76.000 202.145,76.000 201.833 C 76.000 201.182,73.628 199.600,72.653 199.600 C 72.294 199.600,72.000 199.428,72.000 199.217 C 72.000 199.006,71.376 198.883,70.614 198.943 C 69.706 199.014,69.154 198.856,69.011 198.484 C 68.873 198.124,68.463 197.996,67.896 198.134 C 67.403 198.254,66.668 198.106,66.261 197.804 C 65.855 197.502,65.288 197.345,65.002 197.455 C 64.715 197.565,64.362 197.462,64.217 197.227 C 64.072 196.992,63.738 196.803,63.476 196.806 C 63.190 196.810,63.239 196.967,63.600 197.200 C 63.930 197.413,64.026 197.591,63.813 197.594 C 63.600 197.597,63.015 197.122,62.513 196.538 C 61.720 195.615,61.600 195.576,61.600 196.238 C 61.599 196.880,61.442 196.817,60.597 195.835 C 60.047 195.195,59.498 194.768,59.379 194.888 C 59.260 195.007,59.453 195.396,59.810 195.752 C 60.390 196.333,60.392 196.400,59.829 196.400 C 59.483 196.400,59.200 196.136,59.200 195.814 C 59.200 195.492,58.840 195.035,58.400 194.800 C 57.960 194.565,57.600 194.536,57.600 194.737 M48.428 202.676 C 48.413 203.158,48.580 203.664,48.800 203.800 C 49.273 204.092,49.273 203.701,48.800 202.600 C 48.469 201.829,48.455 201.831,48.428 202.676 M131.600 206.400 C 131.600 206.620,131.375 206.806,131.100 206.813 C 130.354 206.832,128.400 208.673,128.400 209.357 C 128.400 209.685,128.239 210.052,128.042 210.174 C 127.618 210.436,127.776 214.914,128.236 215.658 C 128.412 215.942,128.529 217.073,128.497 218.170 C 128.465 219.267,128.655 220.432,128.919 220.759 C 129.305 221.236,129.293 221.289,128.859 221.028 C 128.432 220.771,128.441 220.904,128.900 221.651 C 129.243 222.210,129.443 223.381,129.388 224.500 C 129.328 225.701,129.460 226.402,129.747 226.406 C 130.023 226.410,129.991 226.545,129.666 226.751 C 129.021 227.160,128.981 227.618,129.561 227.976 C 129.797 228.122,130.051 229.642,130.125 231.353 C 130.199 233.065,130.447 234.586,130.677 234.733 C 130.906 234.880,131.043 235.944,130.982 237.098 C 130.921 238.252,131.035 239.298,131.237 239.423 C 131.450 239.555,131.419 239.991,131.161 240.473 C 130.841 241.070,130.841 241.222,131.160 241.025 C 131.439 240.852,131.605 241.163,131.613 241.876 C 131.624 242.896,131.675 242.935,132.157 242.300 C 132.872 241.357,133.330 241.409,132.814 242.374 C 132.248 243.431,132.291 244.113,132.900 243.747 C 133.253 243.535,133.241 243.642,132.862 244.110 C 132.566 244.475,132.405 245.004,132.504 245.287 C 132.612 245.593,134.466 244.050,137.104 241.461 C 139.534 239.074,141.630 237.139,141.762 237.161 C 142.708 237.316,143.200 237.108,143.200 236.551 C 143.200 236.022,143.090 235.993,142.605 236.396 C 142.086 236.827,142.068 236.724,142.466 235.583 C 142.859 234.456,142.821 234.204,142.184 233.739 C 141.779 233.442,141.661 233.200,141.924 233.200 C 142.186 233.200,142.400 233.009,142.400 232.776 C 142.400 232.543,142.175 232.488,141.900 232.653 C 141.588 232.841,141.615 232.688,141.974 232.246 C 142.473 231.632,142.473 231.491,141.974 231.170 C 141.612 230.937,141.548 230.689,141.800 230.500 C 142.370 230.072,142.491 229.193,142.053 228.658 C 141.847 228.406,141.626 227.030,141.562 225.600 C 141.498 224.170,141.294 222.685,141.108 222.300 C 140.913 221.894,140.928 221.600,141.143 221.600 C 141.369 221.600,141.362 220.933,141.125 219.900 C 140.911 218.965,140.733 217.570,140.730 216.800 C 140.727 216.030,140.585 215.220,140.416 215.000 C 140.246 214.780,140.128 213.722,140.153 212.649 C 140.183 211.420,140.015 210.627,139.700 210.506 C 139.425 210.401,139.200 209.914,139.200 209.424 C 139.200 207.775,136.412 206.000,133.823 206.000 C 132.601 206.000,131.600 206.180,131.600 206.400 M131.800 246.400 C 131.435 246.990,131.940 247.598,132.588 247.349 C 132.897 247.231,133.052 246.879,132.932 246.567 C 132.678 245.906,132.153 245.829,131.800 246.400 M79.567 306.500 C 79.304 307.289,79.455 308.458,79.897 309.052 C 80.402 309.731,80.426 309.691,80.160 308.607 C 79.999 307.951,79.867 307.186,79.867 306.907 C 79.867 306.471,79.667 306.200,79.567 306.500 " stroke="none" fill="#fcbf53" fill-rule="evenodd"></path><path id="path3" d="M267.402 49.602 C 267.802 50.044,268.211 50.322,268.312 50.221 C 268.528 50.005,267.388 48.800,266.967 48.800 C 266.807 48.800,267.003 49.161,267.402 49.602 M385.481 173.039 C 385.086 173.568,384.908 174.000,385.085 174.000 C 385.434 174.000,386.538 172.401,386.328 172.200 C 386.257 172.133,385.877 172.511,385.481 173.039 M323.693 201.200 C 323.418 201.640,323.331 202.000,323.500 202.000 C 323.669 202.000,324.032 201.640,324.307 201.200 C 324.582 200.760,324.669 200.400,324.500 200.400 C 324.331 200.400,323.968 200.760,323.693 201.200 M323.600 263.338 C 323.600 263.482,323.960 263.960,324.400 264.400 C 324.840 264.840,325.200 265.048,325.200 264.862 C 325.200 264.676,324.840 264.198,324.400 263.800 C 323.960 263.402,323.600 263.194,323.600 263.338 M325.554 268.300 C 325.304 269.948,325.289 270.845,325.515 270.619 C 325.803 270.330,326.016 268.000,325.753 268.000 C 325.669 268.000,325.579 268.135,325.554 268.300 M324.484 276.483 C 324.347 278.485,324.587 278.394,324.965 276.300 C 325.114 275.475,325.093 274.800,324.918 274.801 C 324.743 274.801,324.548 275.558,324.484 276.483 M311.200 281.576 C 311.200 282.003,311.335 282.436,311.500 282.538 C 311.665 282.640,311.800 282.291,311.800 281.762 C 311.800 281.233,311.665 280.800,311.500 280.800 C 311.335 280.800,311.200 281.149,311.200 281.576 M322.200 285.200 C 322.336 285.420,322.257 285.600,322.024 285.600 C 321.791 285.600,321.600 285.802,321.600 286.049 C 321.600 286.359,321.785 286.344,322.200 286.000 C 322.897 285.422,322.988 284.800,322.376 284.800 C 322.143 284.800,322.064 284.980,322.200 285.200 M318.291 287.494 C 318.535 288.128,318.814 288.116,319.713 287.433 C 320.363 286.941,320.323 286.897,319.262 286.940 C 318.499 286.971,318.164 287.162,318.291 287.494 M316.400 287.635 C 316.400 287.836,316.790 288.000,317.267 288.000 C 317.743 288.000,318.008 287.875,317.855 287.722 C 317.423 287.289,316.400 287.229,316.400 287.635 M309.947 315.299 C 309.651 315.853,309.402 316.006,309.300 315.699 C 309.063 314.988,308.400 315.080,308.400 315.824 C 308.400 316.167,308.220 316.336,308.000 316.200 C 307.780 316.064,307.600 316.244,307.600 316.600 C 307.600 316.956,307.420 317.136,307.200 317.000 C 306.967 316.856,306.800 317.263,306.800 317.976 C 306.800 318.649,306.620 319.200,306.400 319.200 C 306.180 319.200,306.000 319.391,306.000 319.624 C 306.000 319.857,306.208 319.919,306.462 319.762 C 306.776 319.567,306.814 319.654,306.579 320.034 C 306.389 320.341,306.183 321.224,306.120 321.996 C 306.057 322.768,305.885 323.670,305.738 324.000 C 305.395 324.767,305.312 325.485,305.250 328.224 C 305.219 329.593,305.046 330.352,304.800 330.200 C 304.580 330.064,304.400 330.143,304.400 330.376 C 304.400 330.609,304.580 330.800,304.800 330.800 C 305.020 330.800,305.200 330.991,305.200 331.224 C 305.200 331.457,305.020 331.536,304.800 331.400 C 304.550 331.246,304.400 332.063,304.400 333.576 C 304.400 334.925,304.223 336.000,304.000 336.000 C 303.780 336.000,303.600 336.630,303.600 337.400 L 303.600 338.800 285.500 338.882 C 275.545 338.927,268.985 339.025,270.922 339.098 L 274.444 339.232 269.199 344.416 C 266.314 347.267,264.100 349.640,264.277 349.689 C 264.455 349.738,260.370 349.878,255.200 350.000 C 250.030 350.122,263.035 350.262,284.100 350.311 C 305.165 350.360,322.400 350.535,322.400 350.700 C 322.400 350.865,323.335 351.056,324.479 351.125 C 325.622 351.194,326.747 351.369,326.979 351.514 C 327.210 351.659,327.659 351.817,327.975 351.864 C 328.850 351.997,332.101 353.710,332.975 354.499 C 333.402 354.885,333.908 355.200,334.099 355.200 C 334.291 355.200,334.336 355.380,334.200 355.600 C 334.064 355.820,334.122 356.000,334.328 356.000 C 334.951 356.000,338.000 359.155,338.000 359.800 C 338.000 360.130,338.180 360.400,338.400 360.400 C 338.620 360.400,338.800 360.760,338.800 361.200 C 338.800 361.640,338.980 362.000,339.200 362.000 C 339.420 362.000,339.600 362.439,339.600 362.976 C 339.600 363.513,339.780 364.064,340.000 364.200 C 340.220 364.336,340.400 365.157,340.400 366.024 C 340.400 366.891,340.580 367.600,340.800 367.600 C 341.022 367.600,341.200 368.667,341.200 370.000 C 341.200 371.333,341.022 372.400,340.800 372.400 C 340.580 372.400,340.397 372.805,340.394 373.300 C 340.386 374.554,339.399 377.265,339.070 376.937 C 338.922 376.788,338.800 377.057,338.800 377.533 C 338.800 378.010,338.620 378.400,338.400 378.400 C 338.180 378.400,338.000 378.677,338.000 379.016 C 338.000 379.669,333.113 384.800,332.491 384.800 C 332.289 384.800,331.798 385.160,331.400 385.600 C 331.002 386.040,330.344 386.400,329.938 386.400 C 329.532 386.400,329.200 386.580,329.200 386.800 C 329.200 387.020,328.765 387.200,328.233 387.200 C 327.702 387.200,327.207 387.370,327.133 387.578 C 327.060 387.785,325.867 387.995,324.483 388.044 C 323.098 388.093,321.872 388.283,321.759 388.466 C 321.646 388.650,298.118 388.837,269.476 388.882 C 240.834 388.927,218.985 389.025,220.922 389.098 L 224.444 389.232 219.222 394.393 C 216.350 397.232,214.000 399.660,214.000 399.788 C 214.000 400.307,332.127 399.820,332.300 399.300 C 332.392 399.025,332.801 398.800,333.209 398.800 C 333.617 398.800,334.995 398.227,336.271 397.527 C 338.634 396.230,339.069 395.934,340.429 394.700 C 340.853 394.315,341.380 394.000,341.600 394.000 C 342.109 394.000,346.400 389.694,346.400 389.182 C 346.400 388.972,346.580 388.800,346.800 388.800 C 347.020 388.800,347.200 388.530,347.200 388.200 C 347.200 387.870,347.380 387.600,347.600 387.600 C 347.820 387.600,348.000 387.370,348.000 387.088 C 348.000 386.807,348.360 386.317,348.800 386.000 C 349.240 385.683,349.600 385.227,349.600 384.987 C 349.600 384.747,349.960 383.805,350.400 382.894 C 350.840 381.984,351.200 380.960,351.200 380.619 C 351.200 380.279,351.341 380.000,351.513 380.000 C 351.685 380.000,351.866 379.515,351.915 378.922 C 351.964 378.330,352.163 377.745,352.358 377.622 C 353.061 377.181,353.786 366.162,353.139 365.762 C 352.953 365.647,352.800 364.901,352.800 364.105 C 352.800 362.688,352.251 360.491,351.551 359.105 C 351.358 358.723,351.200 358.048,351.200 357.605 C 351.200 357.162,351.020 356.800,350.800 356.800 C 350.580 356.800,350.400 356.440,350.400 356.000 C 350.400 355.560,350.220 355.200,350.000 355.200 C 349.780 355.200,349.600 354.829,349.600 354.376 C 349.600 353.923,349.420 353.664,349.200 353.800 C 348.980 353.936,348.800 353.767,348.800 353.424 C 348.800 353.081,348.620 352.800,348.400 352.800 C 348.180 352.800,348.000 352.564,348.000 352.275 C 348.000 351.987,347.676 351.402,347.280 350.975 C 346.884 350.549,346.439 349.885,346.292 349.500 C 346.145 349.115,345.704 348.797,345.313 348.794 C 344.706 348.789,344.689 348.730,345.200 348.400 C 345.530 348.187,345.615 348.009,345.389 348.006 C 345.163 348.003,344.421 347.505,343.739 346.900 C 341.334 344.765,340.597 344.215,340.270 344.317 C 340.089 344.374,340.048 344.246,340.180 344.033 C 340.311 343.820,339.566 343.268,338.523 342.807 C 337.481 342.346,336.489 341.751,336.320 341.484 C 336.087 341.118,336.011 341.128,336.006 341.529 C 336.002 341.919,335.830 341.887,335.352 341.409 C 334.995 341.052,334.185 340.657,333.552 340.530 C 332.918 340.404,332.400 340.143,332.400 339.950 C 332.400 339.757,331.680 339.600,330.800 339.600 C 329.920 339.600,329.200 339.420,329.200 339.200 C 329.200 338.980,329.065 338.821,328.900 338.847 C 328.735 338.873,325.765 338.873,322.300 338.847 L 316.000 338.800 316.000 337.800 C 316.000 337.250,316.225 336.797,316.500 336.794 C 316.833 336.790,316.800 336.658,316.400 336.400 C 316.000 336.142,315.967 336.010,316.300 336.006 C 316.639 336.002,316.800 335.290,316.800 333.800 C 316.800 332.590,316.980 331.600,317.200 331.600 C 317.429 331.600,317.600 330.400,317.600 328.800 C 317.600 327.260,317.759 326.000,317.953 326.000 C 318.147 326.000,318.294 324.110,318.280 321.800 C 318.266 319.490,318.095 317.600,317.899 317.600 C 317.362 317.600,316.403 316.531,316.686 316.248 C 316.822 316.111,316.633 316.000,316.267 316.000 C 315.900 316.000,315.600 315.820,315.600 315.600 C 315.600 315.380,315.229 315.200,314.776 315.200 C 314.323 315.200,314.064 315.020,314.200 314.800 C 314.549 314.235,313.459 314.301,312.880 314.880 C 312.507 315.253,312.400 315.253,312.400 314.880 C 312.400 314.013,310.457 314.345,309.947 315.299 M257.200 333.600 C 257.200 334.347,257.307 334.453,257.680 334.080 C 258.053 333.707,258.053 333.493,257.680 333.120 C 257.307 332.747,257.200 332.853,257.200 333.600 " stroke="none" fill="#fc814c" fill-rule="evenodd"></path><path id="path4" d="M334.000 34.400 C 334.000 34.620,334.405 34.797,334.900 34.794 C 335.628 34.789,335.685 34.714,335.200 34.400 C 334.424 33.899,334.000 33.899,334.000 34.400 M337.100 35.537 C 337.485 35.942,337.946 36.194,338.124 36.098 C 338.302 36.002,338.122 35.676,337.724 35.374 C 336.673 34.577,336.284 34.678,337.100 35.537 M340.557 37.015 C 341.045 37.502,340.653 38.038,337.726 40.890 C 333.363 45.141,333.333 45.202,334.815 46.753 C 335.921 47.910,336.706 48.418,336.251 47.683 C 336.144 47.509,336.407 47.340,336.836 47.307 C 337.266 47.275,337.513 47.418,337.385 47.624 C 336.972 48.292,337.615 48.886,338.213 48.389 C 338.631 48.042,338.874 48.129,339.274 48.770 C 339.610 49.308,340.216 49.602,340.996 49.606 C 341.803 49.610,342.025 49.723,341.669 49.949 C 341.305 50.180,341.585 50.358,342.561 50.516 C 343.344 50.643,344.610 51.224,345.375 51.808 C 346.140 52.391,346.941 52.760,347.155 52.628 C 347.369 52.495,347.675 52.598,347.834 52.855 C 348.027 53.167,347.949 53.216,347.600 53.000 C 347.251 52.784,347.173 52.833,347.366 53.145 C 347.525 53.402,347.835 53.502,348.054 53.366 C 348.274 53.231,348.725 53.453,349.056 53.860 C 349.402 54.284,349.548 54.344,349.399 54.000 C 349.256 53.670,349.468 53.769,349.870 54.219 C 350.522 54.951,351.730 55.670,352.468 55.765 C 352.615 55.784,353.158 56.160,353.673 56.600 C 354.188 57.040,355.400 57.916,356.366 58.546 C 357.332 59.176,358.917 60.436,359.889 61.346 C 364.560 65.716,367.600 68.818,367.600 69.212 C 367.600 69.452,367.780 69.536,368.000 69.400 C 368.220 69.264,368.400 69.432,368.400 69.773 C 368.400 70.114,368.760 70.618,369.200 70.893 C 369.640 71.168,370.000 71.507,370.000 71.648 C 370.000 71.788,370.900 72.847,372.000 74.000 C 373.100 75.153,374.000 76.255,374.000 76.448 C 374.000 77.098,374.152 77.396,374.878 78.175 C 375.275 78.602,375.600 79.185,375.600 79.472 C 375.600 79.759,375.942 80.207,376.360 80.468 C 376.778 80.729,377.029 81.179,376.919 81.468 C 376.808 81.757,377.006 82.104,377.358 82.239 C 377.711 82.375,378.000 82.736,378.000 83.043 C 378.000 83.349,378.180 83.600,378.400 83.600 C 378.620 83.600,378.800 83.862,378.800 84.181 C 378.800 85.031,379.670 86.800,380.088 86.800 C 380.285 86.800,380.318 86.575,380.159 86.300 C 380.001 86.025,380.015 85.929,380.190 86.087 C 380.365 86.245,380.574 87.108,380.655 88.005 C 380.736 88.902,380.987 89.853,381.214 90.118 C 381.442 90.383,381.872 90.953,382.170 91.385 C 382.656 92.086,382.793 92.107,383.457 91.585 C 384.124 91.060,384.149 91.065,383.703 91.637 C 383.430 91.987,383.335 92.402,383.491 92.558 C 383.648 92.714,383.421 92.709,382.988 92.546 C 382.289 92.284,382.262 92.326,382.749 92.925 C 383.051 93.296,383.515 93.600,383.780 93.600 C 384.081 93.600,384.216 94.086,384.141 94.900 C 384.037 96.022,384.075 95.981,384.423 94.600 C 384.873 92.808,390.990 86.230,391.771 86.697 C 392.007 86.838,391.966 86.665,391.681 86.312 C 391.331 85.881,391.299 85.586,391.581 85.412 C 391.811 85.269,392.000 85.313,392.000 85.510 C 392.000 85.706,392.294 85.867,392.653 85.867 C 393.120 85.867,393.011 85.652,392.267 85.111 C 391.426 84.498,391.274 84.132,391.463 83.183 C 391.630 82.348,391.524 81.946,391.093 81.780 C 390.728 81.640,390.569 81.242,390.691 80.774 C 390.802 80.348,390.692 80.000,390.447 80.000 C 390.201 80.000,390.000 79.646,390.000 79.214 C 390.000 78.782,389.647 78.239,389.215 78.008 C 388.706 77.736,388.519 77.354,388.684 76.924 C 388.874 76.430,388.774 76.324,388.290 76.510 C 387.813 76.693,387.706 76.590,387.885 76.122 C 388.031 75.743,387.830 75.265,387.389 74.942 C 386.981 74.644,386.784 74.400,386.952 74.400 C 387.120 74.400,386.973 74.115,386.625 73.768 C 386.277 73.420,386.095 72.970,386.220 72.768 C 386.345 72.565,386.257 72.400,386.024 72.400 C 385.791 72.400,385.600 72.134,385.600 71.809 C 385.600 71.484,385.152 70.925,384.603 70.565 C 384.055 70.206,383.706 69.752,383.827 69.556 C 383.948 69.360,383.857 69.200,383.624 69.200 C 383.391 69.200,383.245 68.975,383.300 68.700 C 383.355 68.425,383.162 68.249,382.870 68.310 C 382.579 68.370,382.446 68.250,382.574 68.042 C 382.702 67.834,382.536 67.393,382.204 67.061 C 381.872 66.729,381.600 66.264,381.600 66.029 C 381.600 65.793,381.450 65.600,381.268 65.600 C 381.085 65.600,380.694 65.150,380.400 64.601 C 380.106 64.051,379.786 63.681,379.688 63.778 C 379.436 64.030,377.600 61.779,377.600 61.219 C 377.600 60.962,377.429 60.859,377.219 60.988 C 377.009 61.118,376.567 60.723,376.235 60.112 C 375.903 59.500,375.625 59.137,375.616 59.304 C 375.607 59.472,374.655 58.501,373.500 57.146 C 372.345 55.792,370.773 54.350,370.006 53.942 C 369.240 53.534,368.764 53.200,368.949 53.200 C 369.133 53.200,368.707 52.661,368.002 52.002 C 367.296 51.342,366.576 50.891,366.401 50.999 C 366.227 51.107,365.992 50.955,365.879 50.661 C 365.766 50.367,364.667 49.459,363.437 48.642 C 362.207 47.825,361.200 47.020,361.200 46.853 C 361.200 46.686,360.570 46.302,359.800 46.000 C 359.030 45.698,358.400 45.285,358.400 45.083 C 358.400 44.880,358.132 44.817,357.805 44.943 C 357.469 45.072,357.251 44.968,357.305 44.704 C 357.357 44.447,357.220 44.219,357.000 44.199 C 356.122 44.115,354.753 43.514,354.964 43.303 C 355.224 43.043,353.990 42.029,353.400 42.019 C 353.180 42.015,353.270 42.187,353.600 42.400 C 354.056 42.694,354.071 42.789,353.663 42.794 C 353.367 42.797,353.031 42.440,352.916 42.000 C 352.735 41.308,351.852 40.971,350.700 41.153 C 350.535 41.179,350.400 41.020,350.400 40.800 C 350.400 40.580,350.130 40.400,349.800 40.400 C 349.470 40.400,349.200 40.209,349.200 39.976 C 349.200 39.743,349.035 39.655,348.832 39.780 C 348.630 39.905,348.204 39.747,347.887 39.429 C 347.439 38.981,347.193 38.958,346.796 39.326 C 346.513 39.587,346.388 39.610,346.517 39.378 C 346.807 38.855,344.495 37.922,344.178 38.435 C 344.054 38.636,343.659 38.800,343.300 38.800 C 342.752 38.800,342.772 38.705,343.424 38.213 C 343.851 37.890,344.110 37.606,344.000 37.582 C 342.767 37.315,342.400 37.324,342.400 37.623 C 342.400 37.816,342.120 37.867,341.777 37.736 C 341.434 37.604,341.235 37.287,341.333 37.030 C 341.432 36.774,341.170 36.538,340.752 36.506 C 340.097 36.457,340.070 36.527,340.557 37.015 M319.745 43.478 C 320.177 43.911,321.200 43.971,321.200 43.565 C 321.200 43.364,320.810 43.200,320.333 43.200 C 319.857 43.200,319.592 43.325,319.745 43.478 M327.798 44.803 C 327.661 45.024,327.838 45.317,328.192 45.452 C 328.958 45.746,329.385 45.422,329.016 44.827 C 328.684 44.289,328.122 44.278,327.798 44.803 M331.072 45.843 C 331.197 46.168,331.501 46.361,331.749 46.271 C 331.997 46.181,332.560 46.290,333.000 46.512 C 333.764 46.898,333.769 46.882,333.116 46.145 C 332.279 45.199,330.738 44.972,331.072 45.843 M393.300 89.100 C 393.025 89.192,392.800 89.442,392.800 89.657 C 392.800 89.872,392.980 89.936,393.200 89.800 C 393.420 89.664,393.600 89.743,393.600 89.976 C 393.600 90.209,393.859 90.400,394.175 90.400 C 394.491 90.400,394.725 90.070,394.695 89.667 C 394.640 88.938,394.256 88.781,393.300 89.100 M195.564 195.636 L 194.039 197.161 194.008 224.880 C 193.972 255.933,194.363 282.882,194.847 282.712 C 195.023 282.650,197.535 280.260,200.428 277.400 L 205.690 272.200 205.888 234.650 C 206.023 208.829,205.956 197.180,205.671 197.356 C 205.443 197.497,205.195 197.206,205.119 196.706 C 205.043 196.208,204.747 195.849,204.461 195.910 C 204.175 195.970,204.049 195.844,204.181 195.630 C 205.432 193.607,197.588 193.612,195.564 195.636 M262.470 207.222 C 261.958 207.870,261.279 208.400,260.962 208.400 C 260.563 208.400,260.441 208.712,260.567 209.408 C 260.668 209.963,260.594 210.320,260.403 210.202 C 260.212 210.084,259.942 210.170,259.804 210.393 C 259.666 210.617,259.868 210.800,260.253 210.800 C 260.887 210.800,260.880 210.859,260.176 211.430 C 259.749 211.776,259.670 211.921,260.000 211.753 C 260.470 211.513,260.508 211.572,260.175 212.023 C 259.941 212.340,259.765 212.960,259.784 213.400 C 259.802 213.840,259.690 214.587,259.534 215.061 C 259.341 215.646,259.472 216.122,259.943 216.549 C 260.586 217.131,260.958 216.853,265.019 212.754 C 267.428 210.322,269.760 208.162,270.200 207.954 C 270.932 207.609,270.922 207.593,270.077 207.757 C 269.272 207.914,269.221 207.855,269.677 207.294 C 270.127 206.740,270.100 206.688,269.485 206.918 C 269.030 207.089,268.687 206.971,268.542 206.593 C 268.265 205.872,266.945 205.806,266.665 206.500 C 266.504 206.900,266.457 206.900,266.432 206.500 C 266.414 206.225,265.939 206.000,265.376 206.000 C 264.674 206.000,264.441 206.157,264.635 206.500 C 264.861 206.900,264.810 206.900,264.379 206.500 C 263.651 205.824,263.541 205.866,262.470 207.222 M139.232 209.257 C 139.214 209.858,139.463 210.415,139.809 210.548 C 140.280 210.729,140.338 210.625,140.063 210.091 C 139.868 209.711,139.608 209.130,139.486 208.800 C 139.355 208.448,139.250 208.637,139.232 209.257 M271.235 211.313 C 271.584 211.581,271.975 212.070,272.104 212.400 C 272.266 212.818,272.346 212.741,272.368 212.143 C 272.386 211.671,272.115 211.176,271.767 211.043 C 270.774 210.662,270.541 210.780,271.235 211.313 M259.056 217.684 C 258.735 218.885,258.737 219.396,259.063 219.070 C 259.208 218.925,259.578 219.016,259.886 219.271 C 260.322 219.634,260.418 219.611,260.323 219.168 C 260.255 218.855,259.930 218.478,259.600 218.328 C 259.121 218.111,259.147 218.051,259.733 218.028 C 260.137 218.013,260.395 217.786,260.308 217.525 C 260.021 216.662,259.306 216.752,259.056 217.684 M271.182 219.700 C 271.137 219.865,271.075 220.135,271.044 220.300 C 271.013 220.465,270.830 220.870,270.638 221.200 C 270.373 221.652,270.460 221.638,270.990 221.139 C 271.377 220.776,271.596 220.236,271.478 219.939 C 271.360 219.643,271.226 219.535,271.182 219.700 M258.454 223.500 C 258.502 224.452,258.532 224.478,258.683 223.694 C 258.784 223.171,259.040 222.901,259.290 223.056 C 259.549 223.215,259.608 223.137,259.438 222.862 C 258.926 222.033,258.399 222.375,258.454 223.500 M142.278 236.023 C 142.102 236.698,142.165 236.761,142.631 236.374 C 143.268 235.846,143.386 235.200,142.847 235.200 C 142.652 235.200,142.396 235.570,142.278 236.023 M136.972 241.585 C 134.407 244.108,132.614 245.594,132.506 245.287 C 132.406 245.004,132.566 244.475,132.862 244.110 C 133.241 243.642,133.253 243.535,132.900 243.747 C 132.291 244.113,132.248 243.431,132.814 242.374 C 133.342 241.388,132.746 241.355,132.133 242.336 C 131.865 242.764,131.814 243.299,132.010 243.617 C 132.196 243.917,132.229 244.350,132.085 244.581 C 131.559 245.422,131.600 246.375,132.153 246.163 C 132.452 246.048,132.801 246.225,132.928 246.557 C 133.076 246.942,132.855 247.256,132.314 247.427 C 131.576 247.662,131.551 247.741,132.118 248.058 C 132.475 248.258,132.665 248.686,132.541 249.011 C 132.416 249.335,132.514 249.600,132.757 249.600 C 133.001 249.600,133.200 249.791,133.200 250.024 C 133.200 250.257,133.044 250.351,132.853 250.233 C 132.367 249.933,132.510 251.734,133.000 252.094 C 133.254 252.280,133.230 252.390,132.935 252.394 C 132.428 252.401,132.434 253.099,132.948 253.922 C 133.128 254.209,133.294 255.683,133.317 257.196 C 133.345 258.991,133.506 259.868,133.780 259.716 C 134.011 259.588,133.975 259.725,133.700 260.021 C 133.103 260.664,133.033 261.350,133.600 261.000 C 133.964 260.775,134.054 261.700,134.097 266.100 C 134.103 266.705,134.227 267.200,134.372 267.200 C 134.625 267.200,134.807 268.582,134.952 271.600 C 134.989 272.370,135.178 273.253,135.371 273.562 C 135.613 273.947,135.578 274.034,135.262 273.838 C 135.008 273.681,134.800 273.728,134.800 273.943 C 134.800 274.158,134.971 274.393,135.181 274.467 C 135.539 274.592,135.745 276.492,136.247 284.305 C 136.367 286.179,136.620 287.512,136.830 287.382 C 137.045 287.249,137.200 288.488,137.200 290.343 C 137.200 292.098,137.378 293.593,137.596 293.667 C 137.813 293.740,138.013 295.285,138.039 297.100 C 138.065 298.915,138.247 300.400,138.443 300.400 C 138.640 300.400,138.800 301.829,138.800 303.576 C 138.800 305.323,138.980 306.864,139.200 307.000 C 139.420 307.136,139.600 308.677,139.600 310.424 C 139.600 312.275,139.767 313.600,140.000 313.600 C 140.236 313.600,140.403 315.037,140.406 317.100 C 140.410 319.507,140.533 320.413,140.800 320.000 C 141.069 319.584,141.190 320.351,141.194 322.500 C 141.197 324.205,141.335 325.600,141.500 325.601 C 141.665 325.601,141.847 326.260,141.905 327.066 C 141.963 327.871,142.183 328.739,142.395 328.994 C 142.648 329.299,142.612 329.642,142.290 329.988 C 141.902 330.407,141.904 330.458,142.300 330.235 C 142.631 330.048,142.800 330.238,142.800 330.800 C 142.800 331.266,142.620 331.536,142.400 331.400 C 142.173 331.260,142.000 331.596,142.000 332.176 C 142.000 332.801,142.225 333.200,142.576 333.200 C 143.354 333.200,143.726 333.875,143.145 334.234 C 142.828 334.430,142.780 334.341,142.997 333.962 C 143.244 333.528,143.203 333.505,142.817 333.861 C 142.449 334.201,142.430 334.518,142.746 335.061 C 142.997 335.493,143.181 335.582,143.188 335.276 C 143.195 334.984,143.404 334.879,143.662 335.038 C 143.959 335.222,144.015 335.147,143.817 334.827 C 143.616 334.502,145.017 332.823,147.882 329.958 C 150.286 327.554,152.166 325.500,152.060 325.393 C 151.711 325.045,152.586 325.203,153.200 325.600 C 153.636 325.882,153.657 325.989,153.276 325.994 C 152.988 325.997,152.864 326.180,153.000 326.400 C 153.136 326.620,153.513 326.800,153.838 326.800 C 154.549 326.800,153.890 325.310,152.835 324.533 C 152.487 324.276,152.336 323.931,152.501 323.766 C 152.665 323.601,152.800 323.677,152.800 323.933 C 152.800 324.190,152.980 324.400,153.200 324.400 C 153.688 324.400,153.551 323.511,153.000 323.106 C 152.758 322.929,152.816 322.810,153.144 322.806 C 153.478 322.802,153.323 322.479,152.744 321.970 C 152.225 321.513,152.053 321.271,152.363 321.432 C 152.789 321.654,152.871 321.515,152.700 320.862 C 152.548 320.279,152.625 320.083,152.937 320.258 C 153.277 320.449,153.276 320.383,152.931 320.010 C 152.673 319.731,152.559 319.252,152.676 318.946 C 152.793 318.640,152.691 318.151,152.448 317.858 C 152.206 317.566,152.119 317.214,152.257 317.076 C 152.726 316.607,152.733 314.800,152.265 314.794 C 152.002 314.790,152.059 314.624,152.397 314.411 C 152.872 314.110,152.892 313.932,152.497 313.537 C 152.223 313.263,152.000 312.086,152.000 310.920 C 152.000 309.754,151.859 308.800,151.687 308.800 C 151.514 308.800,151.335 307.495,151.289 305.900 C 151.189 302.479,150.965 300.591,150.587 299.979 C 150.437 299.736,150.331 298.365,150.352 296.934 C 150.374 295.503,150.224 294.018,150.019 293.635 C 149.814 293.252,149.610 291.603,149.565 289.970 C 149.520 288.336,149.341 286.906,149.166 286.791 C 148.991 286.676,148.813 285.326,148.770 283.791 C 148.727 282.256,148.543 280.810,148.362 280.579 C 148.181 280.347,148.003 278.817,147.966 277.179 C 147.929 275.540,147.740 273.893,147.545 273.518 C 147.350 273.143,147.173 271.656,147.152 270.214 C 147.130 268.773,146.952 267.494,146.756 267.373 C 146.560 267.252,146.400 265.723,146.400 263.976 C 146.400 262.125,146.233 260.800,146.000 260.800 C 145.768 260.800,145.600 259.493,145.600 257.680 C 145.600 255.964,145.432 254.389,145.228 254.180 C 145.023 253.971,144.805 252.450,144.743 250.800 C 144.681 249.150,144.468 247.687,144.270 247.549 C 144.072 247.410,143.886 246.060,143.856 244.549 C 143.817 242.545,143.611 241.589,143.099 241.022 C 142.659 240.536,142.537 240.103,142.772 239.868 C 143.007 239.633,142.926 239.269,142.555 238.898 C 142.229 238.572,142.070 238.196,142.203 238.064 C 142.335 237.932,142.611 238.088,142.816 238.412 C 143.110 238.877,143.189 238.813,143.194 238.104 C 143.207 236.215,141.407 237.222,136.972 241.585 M130.978 240.178 C 131.041 240.754,131.197 241.330,131.324 241.457 C 131.451 241.584,131.505 241.218,131.443 240.643 C 131.382 240.069,131.226 239.493,131.097 239.364 C 130.968 239.235,130.914 239.601,130.978 240.178 M88.515 286.980 C 87.902 288.076,88.310 289.347,89.041 288.616 C 89.421 288.236,89.490 287.773,89.261 287.154 C 88.947 286.304,88.900 286.293,88.515 286.980 M89.011 290.783 C 88.881 290.993,88.554 291.081,88.285 290.977 C 88.016 290.874,85.920 292.673,83.626 294.974 C 81.332 297.275,79.327 299.079,79.170 298.981 C 79.013 298.884,78.788 299.053,78.672 299.357 C 78.520 299.752,78.708 299.856,79.330 299.720 C 79.834 299.610,80.026 299.671,79.787 299.865 C 79.320 300.243,79.264 300.997,79.672 301.406 C 80.160 301.893,79.554 302.757,78.901 302.507 C 78.483 302.346,78.367 302.422,78.558 302.732 C 78.717 302.989,79.077 303.200,79.357 303.200 C 79.637 303.200,79.867 303.470,79.867 303.800 C 79.867 304.130,79.747 304.400,79.600 304.400 C 79.453 304.400,79.333 304.932,79.333 305.582 C 79.333 306.313,79.499 306.673,79.767 306.524 C 80.005 306.391,79.975 306.525,79.700 306.821 C 79.425 307.118,79.203 307.549,79.206 307.780 C 79.209 308.011,79.387 307.930,79.600 307.600 C 80.017 306.955,80.060 307.193,80.156 310.668 C 80.182 311.585,80.337 312.470,80.501 312.635 C 80.666 312.799,80.797 313.128,80.794 313.367 C 80.791 313.605,80.613 313.530,80.400 313.200 C 80.187 312.870,80.009 312.789,80.006 313.020 C 80.003 313.251,80.190 313.630,80.422 313.862 C 80.654 314.094,80.868 315.337,80.897 316.624 C 80.927 317.911,81.175 319.602,81.448 320.382 C 81.722 321.162,81.848 322.208,81.728 322.708 C 81.608 323.207,81.704 324.107,81.941 324.708 C 82.179 325.308,82.442 326.790,82.526 328.000 C 82.611 329.210,82.788 330.470,82.920 330.800 C 83.052 331.130,83.252 332.480,83.363 333.800 C 83.474 335.120,83.684 336.785,83.828 337.500 L 84.091 338.800 77.669 338.800 C 74.137 338.800,71.150 338.957,71.032 339.148 C 70.845 339.451,70.106 339.685,67.640 340.224 C 67.332 340.292,66.930 340.584,66.746 340.873 C 66.482 341.291,66.410 341.275,66.400 340.800 C 66.390 340.331,66.316 340.313,66.058 340.720 C 65.876 341.006,65.352 341.268,64.892 341.303 C 64.432 341.338,64.144 341.509,64.251 341.683 C 64.359 341.857,64.077 342.000,63.624 342.000 C 63.171 342.000,62.800 342.191,62.800 342.424 C 62.800 342.657,62.627 342.740,62.415 342.609 C 62.203 342.478,61.693 342.692,61.281 343.085 C 60.870 343.478,60.290 343.856,59.992 343.925 C 59.394 344.063,57.601 346.011,57.600 346.524 C 57.600 346.702,57.463 346.763,57.296 346.659 C 57.128 346.556,56.644 346.725,56.219 347.035 C 55.795 347.346,55.551 347.600,55.677 347.600 C 55.803 347.600,55.208 348.342,54.353 349.249 C 53.499 350.157,52.800 351.067,52.800 351.273 C 52.800 351.479,52.620 351.536,52.400 351.400 C 52.180 351.264,52.000 351.523,52.000 351.976 C 52.000 352.429,51.865 352.801,51.700 352.803 C 51.353 352.807,50.400 354.733,50.400 355.431 C 50.400 355.690,50.132 356.124,49.804 356.396 C 49.477 356.668,49.307 357.050,49.428 357.245 C 49.549 357.440,49.457 357.600,49.224 357.600 C 48.991 357.600,48.800 357.872,48.800 358.205 C 48.800 358.538,48.642 359.123,48.449 359.505 C 47.694 361.001,47.251 363.096,47.248 365.193 C 47.246 366.399,47.054 367.449,46.822 367.526 C 46.590 367.603,46.400 367.842,46.400 368.057 C 46.400 368.272,46.625 368.312,46.900 368.147 C 47.289 367.913,47.296 367.975,46.931 368.427 C 46.446 369.027,46.443 372.176,46.926 372.660 C 47.077 372.810,47.200 373.793,47.200 374.843 C 47.200 375.893,47.380 376.864,47.600 377.000 C 47.820 377.136,48.000 377.867,48.000 378.624 C 48.000 379.381,48.180 380.000,48.400 380.000 C 48.620 380.000,48.800 380.377,48.800 380.837 C 48.800 381.297,49.160 382.131,49.600 382.691 C 50.040 383.250,50.400 383.952,50.400 384.249 C 50.400 384.738,51.042 385.683,52.229 386.945 C 52.672 387.416,52.800 387.735,52.800 388.373 C 52.800 388.578,53.160 388.860,53.600 389.000 C 54.040 389.140,54.400 389.446,54.400 389.680 C 54.400 390.162,55.944 391.600,56.461 391.600 C 56.648 391.600,56.800 391.860,56.800 392.177 C 56.800 392.495,57.340 393.074,58.000 393.464 C 58.660 393.854,59.200 394.314,59.200 394.486 C 59.200 394.659,59.520 394.800,59.912 394.800 C 60.303 394.800,60.883 395.160,61.200 395.600 C 61.517 396.040,62.007 396.400,62.288 396.400 C 62.570 396.400,62.800 396.580,62.800 396.800 C 62.800 397.020,63.235 397.200,63.767 397.200 C 64.298 397.200,64.795 397.385,64.871 397.612 C 64.946 397.838,65.546 398.063,66.204 398.112 C 66.862 398.160,67.670 398.504,68.000 398.876 C 68.785 399.761,73.478 400.396,72.998 399.553 C 72.743 399.106,72.786 399.096,73.221 399.500 C 73.518 399.775,74.669 399.997,75.780 399.993 L 77.800 399.985 83.145 394.655 L 88.489 389.324 83.156 389.043 C 80.223 388.888,77.719 388.592,77.591 388.386 C 77.464 388.180,76.425 388.032,75.284 388.058 C 74.048 388.085,72.932 387.881,72.527 387.552 C 71.998 387.123,71.917 387.118,72.165 387.530 C 72.429 387.968,72.339 387.969,71.642 387.533 C 71.179 387.244,70.800 386.860,70.800 386.680 C 70.800 386.500,70.635 386.455,70.432 386.580 C 70.230 386.705,69.786 386.529,69.447 386.189 C 69.107 385.850,68.713 385.604,68.572 385.644 C 68.262 385.732,66.936 384.855,65.934 383.900 C 65.530 383.515,65.020 383.200,64.800 383.200 C 64.580 383.200,64.400 382.949,64.400 382.643 C 64.400 382.336,64.104 381.972,63.743 381.833 C 63.381 381.695,63.187 381.479,63.312 381.355 C 63.436 381.230,63.012 380.578,62.369 379.905 C 61.285 378.770,61.031 378.269,61.153 377.500 C 61.179 377.335,61.020 377.200,60.800 377.200 C 60.580 377.200,60.400 376.855,60.400 376.433 C 60.400 376.012,60.220 375.607,60.001 375.533 C 59.781 375.460,59.572 374.627,59.535 373.683 C 59.498 372.738,59.317 371.873,59.134 371.759 C 58.656 371.464,58.719 366.800,59.200 366.800 C 59.420 366.800,59.600 366.091,59.600 365.224 C 59.600 364.357,59.780 363.536,60.000 363.400 C 60.220 363.264,60.400 362.837,60.400 362.452 C 60.400 362.066,60.760 361.364,61.200 360.892 C 61.640 360.420,62.000 359.771,62.000 359.450 C 62.000 359.129,62.135 358.807,62.300 358.733 C 62.465 358.660,63.095 358.001,63.700 357.269 C 64.305 356.537,64.800 356.027,64.800 356.136 C 64.800 356.244,65.433 355.718,66.207 354.967 C 66.981 354.215,67.859 353.600,68.158 353.600 C 68.457 353.600,68.924 353.332,69.196 353.004 C 69.468 352.677,69.850 352.507,70.045 352.628 C 70.240 352.749,70.400 352.657,70.400 352.424 C 70.400 352.191,70.814 352.000,71.320 352.000 C 71.826 352.000,72.414 351.826,72.626 351.614 C 72.839 351.401,73.910 351.159,75.006 351.075 C 76.103 350.992,77.270 350.819,77.600 350.693 C 77.930 350.566,89.340 350.376,102.955 350.271 L 127.709 350.080 133.063 344.740 L 138.418 339.400 134.709 339.145 C 132.669 339.004,123.215 338.869,113.700 338.845 L 96.400 338.800 96.353 337.700 C 96.327 337.095,96.336 336.436,96.374 336.237 C 96.411 336.037,96.268 335.766,96.055 335.634 C 95.841 335.502,95.621 334.315,95.564 332.997 C 95.508 331.679,95.329 330.509,95.166 330.398 C 95.003 330.287,94.821 329.207,94.763 327.998 C 94.704 326.789,94.463 325.668,94.228 325.506 C 93.951 325.316,93.993 325.210,94.349 325.206 C 94.739 325.202,94.780 325.056,94.489 324.700 C 94.264 324.425,94.024 323.120,93.957 321.800 C 93.889 320.480,93.700 319.213,93.537 318.984 C 93.375 318.755,93.187 317.451,93.121 316.086 C 93.054 314.722,92.887 313.604,92.748 313.602 C 92.610 313.601,92.395 312.565,92.271 311.300 C 92.148 310.035,91.843 307.650,91.595 306.000 C 91.174 303.209,90.955 301.127,90.845 298.876 C 90.820 298.368,90.659 298.040,90.487 298.147 C 90.314 298.253,90.194 297.716,90.219 296.952 C 90.245 296.189,90.116 295.471,89.933 295.358 C 89.750 295.245,89.603 294.938,89.606 294.676 C 89.610 294.389,89.768 294.438,90.004 294.800 C 90.288 295.234,90.349 295.012,90.225 294.000 C 90.131 293.230,90.042 292.364,90.027 292.076 C 90.012 291.788,89.837 291.654,89.637 291.777 C 89.438 291.900,89.369 291.641,89.484 291.201 C 89.702 290.367,89.421 290.119,89.011 290.783 M77.200 291.600 C 77.435 292.040,77.673 292.400,77.728 292.400 C 77.783 292.400,77.829 292.040,77.829 291.600 C 77.829 291.160,77.591 290.800,77.300 290.800 C 76.896 290.800,76.872 290.988,77.200 291.600 M78.524 294.500 C 78.807 295.289,78.183 295.476,77.855 294.700 C 77.738 294.425,77.671 294.888,77.705 295.728 C 77.764 297.186,78.400 298.349,78.400 297.000 C 78.400 296.644,78.545 296.442,78.721 296.551 C 79.124 296.801,78.984 294.440,78.574 294.071 C 78.408 293.922,78.386 294.115,78.524 294.500 M153.366 329.922 C 153.108 330.097,153.223 330.459,153.675 330.897 C 154.360 331.561,154.388 331.557,154.274 330.807 C 154.121 329.806,153.882 329.572,153.366 329.922 M142.400 336.930 C 142.400 337.299,142.591 337.600,142.824 337.600 C 143.057 337.600,143.137 337.779,143.002 337.997 C 142.867 338.215,142.920 338.685,143.119 339.041 C 143.451 339.634,143.501 339.635,143.728 339.044 C 143.871 338.670,143.770 338.397,143.487 338.394 C 143.146 338.390,143.132 338.300,143.442 338.094 C 143.743 337.894,143.647 337.555,143.142 337.030 C 142.488 336.351,142.400 336.339,142.400 336.930 " stroke="none" fill="#fcac4c" fill-rule="evenodd"></path></g></svg>